<?xml version="1.0" encoding="UTF-8" standalone="no"?>
<svg width="55px" height="21px" viewBox="0 0 55 21" version="1.1" xmlns="http://www.w3.org/2000/svg" xmlns:xlink="http://www.w3.org/1999/xlink" xmlns:sketch="http://www.bohemiancoding.com/sketch/ns">
    <!-- Generator: Sketch 3.3.3 (12072) - http://www.bohemiancoding.com/sketch -->
    <title>Rectangle 140 + Today</title>
    <desc>Created with Sketch.</desc>
    <defs>
        <filter x="-50%" y="-50%" width="200%" height="200%" filterUnits="objectBoundingBox" id="filter-1">
            <feOffset dx="0" dy="0" in="SourceAlpha" result="shadowOffsetOuter1"></feOffset>
            <feGaussianBlur stdDeviation="0.5" in="shadowOffsetOuter1" result="shadowBlurOuter1"></feGaussianBlur>
            <feColorMatrix values="0 0 0 0 0   0 0 0 0 0   0 0 0 0 0  0 0 0 0.35 0" in="shadowBlurOuter1" type="matrix" result="shadowMatrixOuter1"></feColorMatrix>
            <feMerge>
                <feMergeNode in="shadowMatrixOuter1"></feMergeNode>
                <feMergeNode in="SourceGraphic"></feMergeNode>
            </feMerge>
        </filter>
    </defs>
    <g id="Page-1" stroke="none" stroke-width="1" fill="none" fill-rule="evenodd" sketch:type="MSPage">
        <g id="Rectangle-140-+-Today" sketch:type="MSLayerGroup" transform="translate(1.000000, 1.000000)">
            <rect id="Rectangle-140" fill="#FBFBFB" filter="url(#filter-1)" sketch:type="MSShapeGroup" x="0" y="0" width="53" height="19" rx="3"></rect>
            <g id="Today" transform="translate(10.000000, 4.000000)" fill="#707070" sketch:type="MSShapeGroup">
                <path d="M6.88476562,1.39453125 L4.14257812,1.39453125 L4.14257812,9 L3.0234375,9 L3.0234375,1.39453125 L0.287109375,1.39453125 L0.287109375,0.46875 L6.88476562,0.46875 L6.88476562,1.39453125 Z M7.69335938,5.77148438 C7.69335938,5.31054457 7.76074151,4.88379103 7.89550781,4.49121094 C8.03027411,4.09863085 8.22167845,3.75781395 8.46972656,3.46875 C8.71777468,3.17968605 9.01952947,2.95312582 9.375,2.7890625 C9.73047053,2.62499918 10.128904,2.54296875 10.5703125,2.54296875 C11.0195335,2.54296875 11.4228498,2.62499918 11.7802734,2.7890625 C12.1376971,2.95312582 12.441405,3.17968605 12.6914062,3.46875 C12.9414075,3.75781395 13.1328118,4.09863085 13.265625,4.49121094 C13.3984382,4.88379103 13.4648438,5.31054457 13.4648438,5.77148438 L13.4648438,5.90039062 C13.4648438,6.36133043 13.3984382,6.78808397 13.265625,7.18066406 C13.1328118,7.57324415 12.9414075,7.9130845 12.6914062,8.20019531 C12.441405,8.48730612 12.1386737,8.71191325 11.7832031,8.87402344 C11.4277326,9.03613362 11.027346,9.1171875 10.5820312,9.1171875 C10.1367165,9.1171875 9.7363299,9.03613362 9.38085938,8.87402344 C9.02538885,8.71191325 8.7226575,8.48730612 8.47265625,8.20019531 C8.222655,7.9130845 8.03027411,7.57324415 7.89550781,7.18066406 C7.76074151,6.78808397 7.69335938,6.36133043 7.69335938,5.90039062 L7.69335938,5.77148438 Z M8.78320312,5.90039062 C8.78320312,6.21679846 8.82031213,6.51562359 8.89453125,6.796875 C8.96875037,7.07812641 9.08105394,7.32519425 9.23144531,7.53808594 C9.38183669,7.75097763 9.56933481,7.91992125 9.79394531,8.04492188 C10.0185558,8.1699225 10.2812485,8.23242188 10.5820312,8.23242188 C10.8789077,8.23242188 11.1406239,8.1699225 11.3671875,8.04492188 C11.5937511,7.91992125 11.7812493,7.75097763 11.9296875,7.53808594 C12.0781257,7.32519425 12.1904293,7.07812641 12.2666016,6.796875 C12.3427738,6.51562359 12.3808594,6.21679846 12.3808594,5.90039062 L12.3808594,5.77148438 C12.3808594,5.45898281 12.3427738,5.16113423 12.2666016,4.87792969 C12.1904293,4.59472515 12.0771492,4.34668075 11.9267578,4.13378906 C11.7763664,3.92089737 11.5878918,3.7509772 11.3613281,3.62402344 C11.1347645,3.49706968 10.8710953,3.43359375 10.5703125,3.43359375 C10.273436,3.43359375 10.013673,3.49706968 9.79101562,3.62402344 C9.56835826,3.7509772 9.38183669,3.92089737 9.23144531,4.13378906 C9.08105394,4.34668075 8.96875037,4.59472515 8.89453125,4.87792969 C8.82031213,5.16113423 8.78320312,5.45898281 8.78320312,5.77148438 L8.78320312,5.90039062 Z M14.5605469,5.77734375 C14.5605469,5.29296633 14.6201166,4.85254104 14.7392578,4.45605469 C14.858399,4.05956833 15.0273427,3.71972798 15.2460938,3.43652344 C15.4648448,3.1533189 15.7275375,2.93359453 16.0341797,2.77734375 C16.3408218,2.62109297 16.6835919,2.54296875 17.0625,2.54296875 C17.4492207,2.54296875 17.7871079,2.60839778 18.0761719,2.73925781 C18.3652358,2.87011784 18.6152333,3.05859252 18.8261719,3.3046875 L18.8261719,0 L19.9101562,0 L19.9101562,9 L18.9140625,9 L18.8613281,8.3203125 C18.6503896,8.57812629 18.3964859,8.77538994 18.0996094,8.91210938 C17.8027329,9.04882881 17.453127,9.1171875 17.0507812,9.1171875 C16.6796856,9.1171875 16.3408218,9.03711018 16.0341797,8.87695312 C15.7275375,8.71679607 15.4648448,8.4931655 15.2460938,8.20605469 C15.0273427,7.91894388 14.858399,7.57910353 14.7392578,7.18652344 C14.6201166,6.79394335 14.5605469,6.3652367 14.5605469,5.90039062 L14.5605469,5.77734375 Z M15.6445312,5.90039062 C15.6445312,6.21679846 15.6767575,6.51464704 15.7412109,6.79394531 C15.8056644,7.07324358 15.9062493,7.31640521 16.0429688,7.5234375 C16.1796882,7.73046979 16.3535146,7.89453064 16.5644531,8.015625 C16.7753917,8.13671936 17.0273423,8.19726562 17.3203125,8.19726562 C17.5117197,8.19726562 17.683593,8.17480491 17.8359375,8.12988281 C17.988282,8.08496071 18.1259759,8.02148479 18.2490234,7.93945312 C18.3720709,7.85742146 18.4814448,7.75976619 18.5771484,7.64648438 C18.672852,7.53320256 18.755859,7.40820381 18.8261719,7.27148438 L18.8261719,4.359375 C18.755859,4.23046811 18.6738286,4.11132867 18.5800781,4.00195312 C18.4863277,3.89257758 18.3779303,3.79785196 18.2548828,3.71777344 C18.1318353,3.63769491 17.9941414,3.57519554 17.8417969,3.53027344 C17.6894524,3.48535134 17.5195322,3.46289062 17.3320312,3.46289062 C17.0351548,3.46289062 16.7802745,3.52441345 16.5673828,3.64746094 C16.3544911,3.77050843 16.1796882,3.93749895 16.0429688,4.1484375 C15.9062493,4.35937605 15.8056644,4.60449079 15.7412109,4.88378906 C15.6767575,5.16308733 15.6445312,5.46093592 15.6445312,5.77734375 L15.6445312,5.90039062 Z M25.5058594,9 C25.4667967,8.92187461 25.435547,8.82324278 25.4121094,8.70410156 C25.3886718,8.58496034 25.3691407,8.46093814 25.3535156,8.33203125 C25.2519526,8.43750053 25.1376959,8.53808546 25.0107422,8.63378906 C24.8837884,8.72949267 24.7451179,8.8134762 24.5947266,8.88574219 C24.4443352,8.95800817 24.2812509,9.01464823 24.1054688,9.05566406 C23.9296866,9.09667989 23.7441416,9.1171875 23.5488281,9.1171875 C23.2246078,9.1171875 22.9306654,9.06835986 22.6669922,8.97070312 C22.403319,8.87304639 22.1787119,8.74023521 21.9931641,8.57226562 C21.8076163,8.40429604 21.664063,8.20605583 21.5625,7.97753906 C21.460937,7.74902229 21.4101562,7.50390756 21.4101562,7.2421875 C21.4101562,6.90234205 21.4765618,6.60254036 21.609375,6.34277344 C21.7421882,6.08300651 21.9326159,5.86523525 22.1806641,5.68945312 C22.4287122,5.513671 22.7285139,5.38085982 23.0800781,5.29101562 C23.4316424,5.20117143 23.8242166,5.15625 24.2578125,5.15625 L25.3359375,5.15625 L25.3359375,4.65820312 C25.3359375,4.27929498 25.2226574,3.97754019 24.9960938,3.75292969 C24.7695301,3.52831919 24.4355491,3.41601562 23.9941406,3.41601562 C23.7910146,3.41601562 23.6054696,3.4433591 23.4375,3.49804688 C23.2695304,3.55273465 23.1259772,3.6259761 23.0068359,3.71777344 C22.8876947,3.80957077 22.7949222,3.91601502 22.7285156,4.03710938 C22.662109,4.15820373 22.6289062,4.28515559 22.6289062,4.41796875 L21.5390625,4.41796875 C21.5390625,4.19140512 21.5986322,3.96679799 21.7177734,3.74414062 C21.8369147,3.52148326 22.0058583,3.32128995 22.2246094,3.14355469 C22.4433605,2.96581942 22.7080063,2.82128962 23.0185547,2.70996094 C23.3291031,2.59863226 23.6757793,2.54296875 24.0585938,2.54296875 C24.4023455,2.54296875 24.7197251,2.58691362 25.0107422,2.67480469 C25.3017593,2.76269575 25.5507802,2.89550692 25.7578125,3.07324219 C25.9648448,3.25097745 26.1269525,3.47265492 26.2441406,3.73828125 C26.3613287,4.00390758 26.4199219,4.31445135 26.4199219,4.66992188 L26.4199219,7.6171875 C26.4199219,7.83203232 26.4384764,8.05761601 26.4755859,8.29394531 C26.5126955,8.53027462 26.568359,8.73437414 26.6425781,8.90625 L26.6425781,9 L25.5058594,9 Z M23.7070312,8.17382812 C23.9023447,8.17382812 24.0859366,8.14648465 24.2578125,8.09179688 C24.4296884,8.0371091 24.5859368,7.96582075 24.7265625,7.87792969 C24.8671882,7.79003862 24.9892573,7.68945369 25.0927734,7.57617187 C25.1962896,7.46289006 25.2773435,7.34570373 25.3359375,7.22460937 L25.3359375,5.92382812 L24.4335938,5.92382812 C23.8124969,5.92382812 23.3339861,6.02050685 22.9980469,6.21386719 C22.6621077,6.40722753 22.4941406,6.6992168 22.4941406,7.08984375 C22.4941406,7.24218826 22.519531,7.38476496 22.5703125,7.51757812 C22.621094,7.65039129 22.6982417,7.76464796 22.8017578,7.86035156 C22.905274,7.95605517 23.0322258,8.03222628 23.1826172,8.08886719 C23.3330086,8.1455081 23.5078115,8.17382812 23.7070312,8.17382812 L23.7070312,8.17382812 Z M30.1933594,7.41210938 L31.6699219,2.66015625 L32.8300781,2.66015625 L30.28125,9.97851562 C30.222656,10.1347664 30.1464848,10.3046866 30.0527344,10.4882812 C29.9589839,10.6718759 29.8369148,10.8427726 29.6865234,11.0009766 C29.5361321,11.1591805 29.3554698,11.2919917 29.1445312,11.3994141 C28.9335927,11.5068365 28.6855483,11.5605469 28.4003906,11.5605469 C28.3574217,11.5605469 28.3066409,11.5566407 28.2480469,11.5488281 C28.1894528,11.5410156 28.1308597,11.5322266 28.0722656,11.5224609 C28.0136716,11.5126953 27.9589846,11.5029297 27.9082031,11.4931641 C27.8574216,11.4833984 27.8183595,11.4746094 27.7910156,11.4667969 L27.7910156,10.5878906 C27.8066407,10.5917969 27.8281249,10.5947266 27.8554688,10.5966797 C27.8828126,10.5986328 27.9111327,10.6005859 27.9404297,10.6025391 C27.9697267,10.6044922 27.9970702,10.6064453 28.0224609,10.6083984 C28.0478517,10.6103516 28.0683593,10.6113281 28.0839844,10.6113281 C28.267579,10.6113281 28.4296868,10.5937502 28.5703125,10.5585938 C28.7109382,10.5234373 28.835937,10.4658207 28.9453125,10.3857422 C29.054688,10.3056637 29.1494137,10.1992194 29.2294922,10.0664062 C29.3095707,9.93359309 29.3828122,9.76953223 29.4492188,9.57421875 L29.6894531,8.9296875 L27.4277344,2.66015625 L28.6113281,2.66015625 L30.1933594,7.41210938 Z"></path>
            </g>
        </g>
    </g>
</svg>
