<?xml version="1.0" encoding="UTF-8" standalone="no"?>
<svg width="16px" height="16px" viewBox="0 0 16 16" version="1.1" xmlns="http://www.w3.org/2000/svg" xmlns:xlink="http://www.w3.org/1999/xlink" xmlns:sketch="http://www.bohemiancoding.com/sketch/ns">
    <!-- Generator: Sketch 3.4 (15575) - http://www.bohemiancoding.com/sketch -->
    <title>Rectangle 69 Copy 16 + 2</title>
    <desc>Created with Sketch.</desc>
    <defs></defs>
    <g id="dashboard" stroke="none" stroke-width="1" fill="none" fill-rule="evenodd" sketch:type="MSPage">
        <g id="Rectangle-69-Copy-16-+-2" sketch:type="MSLayerGroup">
            <rect id="Rectangle-69-Copy-16" fill="#E6E462" sketch:type="MSShapeGroup" x="0" y="0" width="16" height="16"></rect>
            <path d="M11.4375,13 L4.74511719,13 L4.74511719,11.8583984 L7.98535156,8.32421875 C8.25879043,8.023436 8.48551342,7.75569779 8.66552734,7.52099609 C8.84554126,7.2862944 8.98909452,7.07210383 9.09619141,6.87841797 C9.2032883,6.6847321 9.27848286,6.50358157 9.32177734,6.33496094 C9.36507183,6.1663403 9.38671875,5.9977222 9.38671875,5.82910156 C9.38671875,5.60123584 9.35367872,5.39046321 9.28759766,5.19677734 C9.2215166,5.00309148 9.12581443,4.83561269 9.00048828,4.69433594 C8.87516213,4.55305919 8.72135508,4.44254597 8.5390625,4.36279297 C8.35676992,4.28303997 8.1471366,4.24316406 7.91015625,4.24316406 C7.62304544,4.24316406 7.37353622,4.28873652 7.16162109,4.37988281 C6.94970597,4.4710291 6.774252,4.59749268 6.63525391,4.75927734 C6.49625582,4.92106201 6.39143916,5.11474497 6.32080078,5.34033203 C6.25016241,5.5659191 6.21484375,5.8131497 6.21484375,6.08203125 L4.55371094,6.08203125 C4.55371094,5.64452906 4.62776619,5.2332376 4.77587891,4.84814453 C4.92399163,4.46305146 5.14160013,4.12695456 5.42871094,3.83984375 C5.71582175,3.55273294 6.06900832,3.32600995 6.48828125,3.15966797 C6.90755418,2.99332599 7.38606502,2.91015625 7.92382812,2.91015625 C8.4205754,2.91015625 8.86262827,2.97509701 9.25,3.10498047 C9.63737173,3.23486393 9.96435414,3.41829309 10.230957,3.65527344 C10.4975599,3.89225379 10.7003574,4.1804996 10.8393555,4.52001953 C10.9783536,4.85953946 11.0478516,5.23665157 11.0478516,5.65136719 C11.0478516,5.96126457 10.9977219,6.26773937 10.8974609,6.57080078 C10.7972,6.87386219 10.658204,7.17577975 10.4804688,7.4765625 C10.3027335,7.77734525 10.0908215,8.07926281 9.84472656,8.38232422 C9.59863158,8.68538563 9.32975406,8.98958181 9.03808594,9.29492188 L6.81640625,11.6738281 L11.4375,11.6738281 L11.4375,13 Z" id="2" fill="#FFFFFF" sketch:type="MSShapeGroup"></path>
        </g>
    </g>
</svg>
