<?xml version="1.0" encoding="UTF-8" standalone="no"?>
<svg width="16px" height="16px" viewBox="0 0 16 16" version="1.1" xmlns="http://www.w3.org/2000/svg" xmlns:xlink="http://www.w3.org/1999/xlink" xmlns:sketch="http://www.bohemiancoding.com/sketch/ns">
    <!-- Generator: Sketch 3.4 (15575) - http://www.bohemiancoding.com/sketch -->
    <title>Rectangle 69 + 4 + +</title>
    <desc>Created with Sketch.</desc>
    <defs></defs>
    <g id="dashboard" stroke="none" stroke-width="1" fill="none" fill-rule="evenodd" sketch:type="MSPage">
        <g id="Rectangle-69-+-4-+-+" sketch:type="MSLayerGroup">
            <rect id="Rectangle-69" fill="#FD8687" sketch:type="MSShapeGroup" x="0" y="0" width="16" height="16"></rect>
            <path d="M8.36425781,9.45214844 L9.6015625,9.45214844 L9.6015625,10.7851562 L8.36425781,10.7851562 L8.36425781,13 L6.703125,13 L6.703125,10.7851562 L2.40332031,10.7851562 L2.35546875,9.7734375 L6.6484375,3.046875 L8.36425781,3.046875 L8.36425781,9.45214844 Z M4.09863281,9.45214844 L6.703125,9.45214844 L6.703125,5.29589844 L6.58007812,5.51464844 L4.09863281,9.45214844 Z" id="4" fill="#FFFFFF" sketch:type="MSShapeGroup"></path>
            <path d="M12.6796875,4.67114258 L14.1640625,4.67114258 L14.1640625,5.53833008 L12.6796875,5.53833008 L12.6796875,7.22973633 L11.7578125,7.22973633 L11.7578125,5.53833008 L10.265625,5.53833008 L10.265625,4.67114258 L11.7578125,4.67114258 L11.7578125,3.08911133 L12.6796875,3.08911133 L12.6796875,4.67114258 Z" id="+" fill="#FFFFFF" sketch:type="MSShapeGroup"></path>
        </g>
    </g>
</svg>
