<?xml version="1.0" encoding="UTF-8" standalone="no"?>
<svg width="18px" height="18px" viewBox="0 0 18 18" version="1.1" xmlns="http://www.w3.org/2000/svg" xmlns:xlink="http://www.w3.org/1999/xlink" xmlns:sketch="http://www.bohemiancoding.com/sketch/ns">
    <!-- Generator: Sketch 3.4 (15575) - http://www.bohemiancoding.com/sketch -->
    <title>Shape</title>
    <desc>Created with Sketch.</desc>
    <defs></defs>
    <g id="Page-1" stroke="none" stroke-width="1" fill="none" fill-rule="evenodd" sketch:type="MSPage">
        <g id="reminder-clicked-old-copy-3" sketch:type="MSArtboardGroup" transform="translate(-24.000000, -76.000000)" fill="#404040">
            <g id="Group" sketch:type="MSLayerGroup" transform="translate(0.000000, 50.000000)">
                <g id="sidebar---dashboard-selected-+-Shape-+-Dashboard" sketch:type="MSShapeGroup">
                    <path d="M42,28.1156429 C42,27.0510714 41.1366429,26 40.0714286,26 L25.9285714,26 C24.8633571,26 24,27.0510714 24,28.1156429 L24,42.2591429 C24,43.325 24.8633571,44 25.9285714,44 L40.0714286,44 C41.1366429,44 42,43.325 42,42.2591429 L42,28.1156429 L42,28.1156429 Z M30.4285714,40.1428571 L27.8571429,40.1428571 L27.8571429,35.6428571 L30.4285714,35.6428571 L30.4285714,40.1428571 L30.4285714,40.1428571 Z M34.2857143,40.1428571 L31.7142857,40.1428571 L31.7142857,33.0714286 L34.2857143,33.0714286 L34.2857143,40.1428571 L34.2857143,40.1428571 Z M38.1428571,40.1428571 L35.5714286,40.1428571 L35.5714286,30.5 L38.1428571,30.5 L38.1428571,40.1428571 L38.1428571,40.1428571 Z" id="Shape"></path>
                </g>
            </g>
        </g>
    </g>
</svg>
