<?xml version="1.0" encoding="UTF-8" standalone="no"?>
<svg width="15px" height="15px" viewBox="0 0 15 15" version="1.1" xmlns="http://www.w3.org/2000/svg" xmlns:xlink="http://www.w3.org/1999/xlink" xmlns:sketch="http://www.bohemiancoding.com/sketch/ns">
    <!-- Generator: Sketch 3.4 (15575) - http://www.bohemiancoding.com/sketch -->
    <title>Page 1</title>
    <desc>Created with Sketch.</desc>
    <defs></defs>
    <g id="dashboard" stroke="none" stroke-width="1" fill="none" fill-rule="evenodd" sketch:type="MSPage">
        <g sketch:type="MSArtboardGroup" transform="translate(-273.000000, -264.000000)" id="Rectangle-7-+-Call-Sara-re:-police-+-Imported-Layers-Copy-4-+-Reminder-Copy-Copy-Copy-Copy-Copy-3" fill="#AEB7C7">
            <g sketch:type="MSLayerGroup" transform="translate(243.000000, 251.000000)">
                <path d="M41.1905542,22.9397913 C40.8991858,22.8518226 40.5738803,22.917241 40.341902,23.143191 L38.5086257,24.9755742 C36.1504398,23.7737076 34.2160219,21.8513463 33.0168346,19.4862391 L34.8492178,17.6433622 C35.0838754,17.4252266 35.1490704,17.0999211 35.0584225,16.808776 C34.7505321,15.8755042 34.5830791,14.875921 34.5830791,13.8345861 C34.5830791,13.3750949 34.2082074,13 33.7502791,13 L30.8328,13 C30.3750949,13.0008931 30,13.3750949 30,13.8345861 C30,21.6577706 36.3404433,28 44.166307,28 C44.6242353,28 44.9984371,27.6269145 44.9984371,27.166307 L44.9984371,24.2515071 C44.9993302,23.7920158 44.6242353,23.4160279 44.166307,23.4160279 C43.1249721,23.4160279 42.123826,23.251254 41.1905542,22.9397913 Z" id="Page-1" sketch:type="MSShapeGroup"></path>
            </g>
        </g>
    </g>
</svg>
