<?xml version="1.0" encoding="UTF-8" standalone="no"?>
<svg width="15px" height="18px" viewBox="0 0 15 18" version="1.1" xmlns="http://www.w3.org/2000/svg" xmlns:xlink="http://www.w3.org/1999/xlink" xmlns:sketch="http://www.bohemiancoding.com/sketch/ns">
    <!-- Generator: Sketch 3.4 (15575) - http://www.bohemiancoding.com/sketch -->
    <title>Fill-1 + Fill-3 + Fill-4</title>
    <desc>Created with Sketch.</desc>
    <defs></defs>
    <g id="Page-1" stroke="none" stroke-width="1" fill="none" fill-rule="evenodd" sketch:type="MSPage">
        <g id="icon-reminder" sketch:type="MSLayerGroup" fill="#AEB7C7">
            <g id="claim" sketch:type="MSShapeGroup">
                <g id="dashboard">
                    <g id="icon-reminder">
                        <g id="Fill-1-+-Fill-3-+-Fill-4">
                            <path d="M2.808,7.14994286 L2.94377143,7.1536 L3.07862857,7.15085714 C3.12137143,7.14994286 3.16068571,7.15085714 3.20617143,7.14742857 L3.34651429,7.1376 C3.53302857,7.12411429 3.70811429,7.09645714 3.88754286,7.06331429 C4.06422857,7.024 4.24114286,6.98125714 4.41348571,6.92228571 C4.75885714,6.80891429 5.08754286,6.65005714 5.39474286,6.4608 C5.59542857,6.33485714 5.78651429,6.19474286 5.96777143,6.04297143 L4.38125714,8.78834286 C4.28297143,8.95794286 4.34102857,9.17417143 4.51062857,9.27222857 C4.68045714,9.3696 4.89645714,9.31154286 4.99474286,9.14285714 L5.8608,7.64365714 L7.24205714,5.2544 C7.28114286,5.30445714 7.31954286,5.35451429 7.35977143,5.40274286 C7.47588571,5.54011429 7.59908571,5.67222857 7.72845714,5.79725714 C7.80274286,5.86971429 7.88045714,5.94011429 7.96068571,6.00708571 C7.96525714,6.01165714 7.97051429,6.01508571 7.976,6.01965714 C8.05348571,6.0848 8.13211429,6.14811429 8.2144,6.20982857 L8.2144,6.20891429 C8.33211429,6.29828571 8.45257143,6.384 8.57851429,6.4624 C8.88662857,6.65188571 9.21508571,6.81074286 9.55977143,6.92411429 C9.73211429,6.984 9.90902857,7.02674286 10.0857143,7.06514286 C10.2651429,7.09828571 10.4402286,7.12594286 10.6267429,7.1392 L10.7668571,7.14902857 C10.8134857,7.15177143 10.8518857,7.15085714 10.8946286,7.15268571 L11.0294857,7.15542857 L11.1652571,7.15177143 C11.3465143,7.14902857 11.5293714,7.12868571 11.7133714,7.10171429 C11.8964571,7.06697143 12.0804571,7.02491429 12.2598857,6.95542857 C12.4384,6.88754286 12.6144,6.80091429 12.7776,6.6928 C13.1044571,6.47497143 13.3741714,6.16777143 13.5536,5.824 C13.6429714,5.65188571 13.7124571,5.47154286 13.7643429,5.28754286 C13.7883429,5.19474286 13.8098286,5.10171429 13.8258286,5.00708571 C13.8338286,4.95977143 13.8411429,4.91154286 13.8454857,4.8624 C13.8500571,4.816 13.8544,4.7776 13.8562286,4.72137143 C13.8608,4.65897143 13.8608,4.61782857 13.8608,4.56685714 C13.8608,4.51611429 13.8589714,4.46514286 13.8553143,4.41508571 C13.8491429,4.3152 13.8356571,4.216 13.8187429,4.11702857 C13.7812571,3.91954286 13.7250286,3.72411429 13.6393143,3.5376 C13.5545143,3.35085714 13.4436571,3.17234286 13.3072,3.0144 C13.1723429,2.85531429 13.0125714,2.71794286 12.8411429,2.60457143 C12.6697143,2.49028571 12.4848,2.40365714 12.2973714,2.33668571 C12.1097143,2.26788571 11.9188571,2.22491429 11.7293714,2.192 C11.6338286,2.17851429 11.5410286,2.16251429 11.4420571,2.15634286 L11.2946286,2.14468571 C11.2473143,2.14194286 11.2070857,2.14102857 11.1625143,2.14011429 L11.0224,2.13668571 L10.8811429,2.14011429 C10.7874286,2.14102857 10.6937143,2.14742857 10.6,2.15634286 C10.4125714,2.17051429 10.2249143,2.20091429 10.0393143,2.23748571 C9.8544,2.27862857 9.67062857,2.32777143 9.49188571,2.392 C9.31154286,2.45257143 9.13828571,2.53302857 8.96685714,2.61691429 C8.79908571,2.70537143 8.63474286,2.80274286 8.47862857,2.91062857 C8.29988571,3.03565714 8.1312,3.17417143 7.97234286,3.32228571 C7.93828571,3.35451429 7.90445714,3.38651429 7.87062857,3.41965714 C7.84731429,3.44205714 7.82491429,3.46514286 7.80274286,3.48754286 C7.74651429,3.54651429 7.69097143,3.60525714 7.6384,3.66788571 C7.5152,3.81074286 7.40182857,3.96068571 7.29645714,4.11794286 C7.24365714,4.19634286 7.19382857,4.2768 7.1456,4.35977143 C7.09737143,4.44548571 7.0544,4.5232 7.00708571,4.62582857 L6.98491429,4.67405714 L6.96342857,4.62582857 C6.91702857,4.5232 6.87405714,4.44548571 6.82491429,4.35977143 C6.7776,4.2768 6.72685714,4.19634286 6.67405714,4.11794286 C6.56868571,3.96068571 6.4544,3.81074286 6.33211429,3.66788571 C6.2608,3.58491429 6.18651429,3.50537143 6.10811429,3.42857143 C6.10354286,3.424 6.09828571,3.41965714 6.0928,3.4144 C6.01691429,3.34011429 5.9392,3.26788571 5.85897143,3.19817143 L5.85897143,3.19817143 C5.74102857,3.09737143 5.61965714,3 5.49188571,2.91062857 C5.33577143,2.80182857 5.17234286,2.70537143 5.00365714,2.61691429 C4.83314286,2.53302857 4.65988571,2.45257143 4.47954286,2.392 C4.3008,2.32777143 4.11702857,2.27862857 3.93211429,2.23748571 C3.74651429,2.2 3.55885714,2.1696 3.37142857,2.15634286 C3.27771429,2.14742857 3.184,2.14102857 3.09028571,2.14011429 L2.94994286,2.13668571 L2.80982857,2.14011429 C2.76525714,2.14194286 2.72411429,2.14194286 2.67771429,2.14468571 L2.53028571,2.15634286 C2.4304,2.16251429 2.3376,2.17942857 2.24274286,2.192 C2.05257143,2.22491429 1.8624,2.26788571 1.67497143,2.33668571 C1.48754286,2.40274286 1.30262857,2.48937143 1.1312,2.60457143 C0.959771429,2.71794286 0.8,2.85531429 0.665142857,3.0144 C0.529371429,3.17234286 0.418742857,3.35085714 0.333028571,3.5376 C0.247314286,3.72411429 0.191085714,3.92045714 0.1536,4.11702857 C0.135771429,4.216 0.1232,4.3152 0.117028571,4.41508571 C0.113371429,4.46514286 0.111542857,4.51611429 0.111542857,4.56685714 C0.111542857,4.61691429 0.111542857,4.65897143 0.117028571,4.72137143 C0.118857143,4.7776 0.122285714,4.816 0.127771429,4.8624 C0.133028571,4.91154286 0.140114286,4.95885714 0.147428571,5.00708571 C0.163428571,5.10171429 0.184914286,5.19542857 0.209828571,5.28754286 C0.261714286,5.47222857 0.330285714,5.65188571 0.420571429,5.824 C0.6,6.16777143 0.8688,6.47588571 1.19634286,6.6928 C1.35977143,6.80182857 1.53485714,6.88754286 1.71428571,6.95542857 C1.8928,7.02491429 2.0768,7.06697143 2.25988571,7.10171429 C2.44365714,7.12685714 2.62674286,7.14651429 2.808,7.14994286 L2.808,7.14994286 L2.808,7.14994286 Z M7.77234286,4.71954286 C7.81165714,4.65188571 7.85531429,4.5856 7.89988571,4.51954286 C7.99017143,4.38925714 8.08845714,4.2624 8.19382857,4.14377143 C8.20091429,4.13577143 8.208,4.12777143 8.216,4.11954286 C8.41965714,3.88937143 8.64914286,3.68297143 8.90011429,3.50902857 C9.41782857,3.14742857 10.0294857,2.93577143 10.6651429,2.88388571 C10.7446857,2.8768 10.824,2.87062857 10.9044571,2.87062857 L11.024,2.86697143 L11.1446857,2.8688 C11.1865143,2.87062857 11.2331429,2.86971429 11.2731429,2.87222857 L11.3856,2.88114286 C11.4598857,2.8848 11.5382857,2.89828571 11.6150857,2.90811429 C11.7677714,2.93302857 11.9179429,2.96525714 12.0571429,3.016 C12.1972571,3.06422857 12.3302857,3.12502857 12.4491429,3.20365714 C12.6875429,3.35725714 12.8731429,3.5696 12.9938286,3.82857143 C13.0544,3.95702857 13.0964571,4.09737143 13.1250286,4.24205714 C13.1382857,4.31428571 13.1481143,4.38742857 13.1545143,4.4608 C13.1570286,4.49737143 13.1588571,4.53302857 13.1597714,4.5696 C13.1606857,4.60274286 13.1588571,4.6464 13.1579429,4.6624 L13.1563429,4.69462857 L13.1563429,4.69554286 C13.1563429,4.71154286 13.1536,4.75451429 13.1508571,4.78582857 C13.1474286,4.82057143 13.1428571,4.85622857 13.1376,4.89097143 C13.1259429,4.9616 13.1106286,5.03222857 13.0937143,5.10262857 C13.0562286,5.24205714 13.0061714,5.3776 12.9428571,5.50354286 C12.8141714,5.75634286 12.6304,5.97051429 12.4,6.12937143 C12.2838857,6.208 12.1572571,6.27314286 12.024,6.32594286 C11.8902857,6.38034286 11.7456,6.41417143 11.6,6.44548571 C11.4518857,6.46971429 11.3017143,6.49028571 11.1465143,6.4928 L11.0304,6.49645714 L10.9133714,6.4928 C10.8722286,6.49097143 10.8276571,6.49097143 10.7892571,6.48754286 L10.6786286,6.47771429 C10.5302857,6.46514286 10.3741714,6.4384 10.224,6.408 C10.0740571,6.37234286 9.92411429,6.33394286 9.77942857,6.28114286 C9.48754286,6.18125714 9.20982857,6.04205714 8.94811429,5.87588571 C8.68845714,5.7072 8.44365714,5.51154286 8.22331429,5.29097143 C8.22057143,5.28845714 8.21782857,5.28571429 8.21508571,5.28297143 C8.2144,5.28205714 8.21348571,5.28114286 8.21348571,5.28045714 C8.16068571,5.22765714 8.10902857,5.17325714 8.05897143,5.11794286 C8.008,5.0608 7.95794286,5.00365714 7.90971429,4.94468571 C7.8608,4.88388571 7.81348571,4.82331429 7.76868571,4.7616 C7.76525714,4.75634286 7.7616,4.75085714 7.75794286,4.7456 C7.7616,4.73828571 7.76685714,4.72868571 7.77234286,4.71954286 L7.77234286,4.71954286 L7.77234286,4.71954286 Z M1.576,6.13028571 C1.3456,5.97234286 1.1616,5.75725714 1.03314286,5.50445714 C0.968685714,5.3776 0.919542857,5.24297143 0.882057143,5.10354286 C0.864228571,5.03382857 0.849142857,4.96342857 0.8384,4.89188571 C0.833142857,4.85622857 0.828571429,4.82148571 0.824914286,4.78651429 C0.821485714,4.75451429 0.819657143,4.71154286 0.818742857,4.69645714 L0.818742857,4.69554286 L0.816914286,4.66331429 C0.816,4.64731429 0.815085714,4.60365714 0.816,4.57051429 C0.816914286,4.53485714 0.818742857,4.49828571 0.821485714,4.46171429 C0.826742857,4.38834286 0.837485714,4.3152 0.850971429,4.24274286 C0.879542857,4.0992 0.921371429,3.95794286 0.983085714,3.82948571 C1.10262857,3.57051429 1.28937143,3.35725714 1.52777143,3.20457143 C1.64548571,3.12594286 1.77851429,3.06514286 1.91954286,3.01691429 C2.05897143,2.96617143 2.20891429,2.93394286 2.3616,2.90902857 C2.4384,2.8992 2.51702857,2.88571429 2.59108571,2.88205714 L2.70354286,2.87314286 C2.74285714,2.87062857 2.78925714,2.87131429 2.83222857,2.86971429 L2.95268571,2.86788571 L3.07222857,2.87131429 C3.15268571,2.87131429 3.23222857,2.87771429 3.31154286,2.8848 C3.94742857,2.93577143 4.55794286,3.14811429 5.0768,3.50971429 C5.33577143,3.69028571 5.57325714,3.90445714 5.78217143,4.14468571 C5.80982857,4.17668571 5.83565714,4.20982857 5.8624,4.24205714 C5.89737143,4.28388571 5.9312,4.32685714 5.96434286,4.37051429 C6.00182857,4.41965714 6.03931429,4.47062857 6.07497143,4.52137143 C6.11954286,4.58651429 6.16342857,4.65348571 6.20274286,4.72137143 C6.208,4.73028571 6.21257143,4.74011429 6.21782857,4.74902857 C6.2144,4.75451429 6.21074286,4.75977143 6.20708571,4.76525714 C6.16251429,4.82765714 6.11428571,4.88845714 6.06605714,4.94811429 C6.00182857,5.02765714 5.93302857,5.10354286 5.8624,5.1776 L5.8624,5.1776 C5.82582857,5.216 5.79017143,5.25531429 5.75268571,5.2928 C5.53211429,5.51337143 5.28754286,5.70902857 5.02765714,5.87771429 C4.76617143,6.04365714 4.48845714,6.18308571 4.19634286,6.28297143 C4.05188571,6.33577143 3.90171429,6.37417143 3.75177143,6.40982857 C3.60182857,6.44022857 3.44548571,6.46697143 3.29645714,6.47954286 L3.18582857,6.48937143 C3.14811429,6.49188571 3.10354286,6.4928 3.0624,6.49462857 L2.9456,6.49828571 L2.82948571,6.49462857 C2.67497143,6.49188571 2.52411429,6.47131429 2.376,6.44731429 C2.2304,6.416 2.08571429,6.38217143 1.95177143,6.32777143 C1.81874286,6.27405714 1.69188571,6.20891429 1.576,6.13028571 L1.576,6.13028571 L1.576,6.13028571 Z" id="Fill-1"></path>
                            <path d="M5.86171429,2.71794286 C6.1392,2.92845714 6.39382857,3.16342857 6.616,3.42331429 C6.74811429,3.57668571 6.87131429,3.74011429 6.9856,3.90971429 C6.98651429,3.91062857 6.98651429,3.91154286 6.98742857,3.91154286 C6.98834286,3.90971429 6.98925714,3.90902857 6.99017143,3.90811429 C7.10262857,3.74011429 7.22674286,3.57668571 7.35885714,3.42331429 C7.608,3.13302857 7.89645714,2.87062857 8.21508571,2.64205714 L8.21508571,2.08571429 C8.21508571,2.08571429 8.32228571,0.000914285714 7.0384,0.000914285714 C5.75542857,0.000914285714 5.86171429,1.97942857 5.86171429,1.97942857 L5.86171429,2.71794286 L5.86171429,2.71794286 Z" id="Fill-3"></path>
                            <path d="M13.1874286,8.08297143 C10.8884571,7.73577143 8.21508571,8.08297143 8.21508571,8.08297143 L8.21508571,6.66422857 C7.94902857,6.48388571 7.6992,6.28297143 7.47222857,6.0624 C7.41508571,6.00708571 7.35794286,5.94994286 7.30262857,5.89188571 L5.8624,8.384 L5.8624,11.2909714 C5.8624,12.0928 5.73394286,12.1382857 5.59474286,12.0134857 C5.35085714,11.7938286 4.65897143,10.7570286 4.65897143,10.7570286 C4.65897143,10.7570286 3.86605714,9.31337143 2.73394286,10.0893714 C1.65805714,10.8267429 2.33302857,11.6937143 2.33302857,11.6937143 C2.33302857,11.6937143 5.31702857,15.5634286 5.63931429,15.8857143 C5.78742857,16.0331429 6.1312,16.6009143 6.40708571,17.1188571 C6.62765714,17.1339429 6.85097143,17.1437714 7.07497143,17.1437714 C9.65005714,17.1437714 11.9963429,16.1668571 13.7652571,14.5634286 C14.2276571,12.4178286 14.8777143,8.33828571 13.1874286,8.08297143 L13.1874286,8.08297143 L13.1874286,8.08297143 Z" id="Fill-4"></path>
                        </g>
                    </g>
                </g>
            </g>
        </g>
    </g>
</svg>
