<?xml version="1.0" encoding="UTF-8" standalone="no"?>
<svg width="17px" height="17px" viewBox="0 0 17 17" version="1.1" xmlns="http://www.w3.org/2000/svg" xmlns:xlink="http://www.w3.org/1999/xlink" xmlns:sketch="http://www.bohemiancoding.com/sketch/ns">
    <!-- Generator: Sketch 3.3.3 (12072) - http://www.bohemiancoding.com/sketch -->
    <title>Imported Layers</title>
    <desc>Created with Sketch.</desc>
    <defs></defs>
    <g id="claim" stroke="none" stroke-width="1" fill="none" fill-rule="evenodd" sketch:type="MSPage">
        <g id="dashboard" sketch:type="MSArtboardGroup" transform="translate(-272.000000, -18.000000)" fill="#FFFFFF">
            <path d="M280.52922,18 C277.317967,18 274.715473,20.6027467 274.715473,23.814 C274.715473,25.1814933 275.190473,26.4362533 275.987967,27.424 C275.93046,27.4812533 275.87422,27.5377467 275.816713,27.595 L275.702967,27.7100133 C275.58922,27.82376 275.49422,27.91876 275.417967,28.0325067 C275.132967,27.91876 274.82922,28.07 274.581713,28.3362533 L270.345473,32.345 C270.002967,32.6875067 269.85046,33.0862533 270.192967,33.42876 L270.725473,33.9610133 C271.067727,34.30352 271.466473,34.1510133 271.807967,33.80876 L275.83546,29.5910133 C276.101713,29.3250133 276.253207,29.0210133 276.13946,28.7550133 C276.253207,28.67876 276.348207,28.58376 276.461953,28.4700133 L276.556953,28.3750133 C276.61446,28.3175067 276.651953,28.2800133 276.70946,28.2225067 C277.73546,29.115 279.06546,29.6662533 280.528207,29.6662533 C283.740473,29.6475067 286.342967,27.025 286.342967,23.8150133 C286.342967,20.6225067 283.740473,18 280.52922,18 L280.52922,18 Z M280.52922,27.7475067 C278.362967,27.7475067 276.615473,25.98 276.615473,23.8150133 C276.615473,21.64876 278.362967,19.9 280.52922,19.9 C282.695473,19.9 284.442967,21.6675067 284.442967,23.8150133 C284.442967,25.9612533 282.695473,27.7475067 280.52922,27.7475067 L280.52922,27.7475067 Z" id="Imported-Layers" sketch:type="MSShapeGroup" transform="translate(279.500000, 27.500000) scale(-1, 1) translate(-279.500000, -27.500000) "></path>
        </g>
    </g>
</svg>
