<?xml version="1.0" encoding="UTF-8" standalone="no"?>
<svg width="15px" height="15px" viewBox="0 0 15 15" version="1.1" xmlns="http://www.w3.org/2000/svg" xmlns:xlink="http://www.w3.org/1999/xlink" xmlns:sketch="http://www.bohemiancoding.com/sketch/ns">
    <!-- Generator: Sketch 3.4 (15575) - http://www.bohemiancoding.com/sketch -->
    <title>Page 1</title>
    <desc>Created with Sketch.</desc>
    <defs></defs>
    <g id="Page-1" stroke="none" stroke-width="1" fill="none" fill-rule="evenodd" sketch:type="MSPage">
        <g id="Group" sketch:type="MSLayerGroup" transform="translate(-24.000000, -110.000000)" fill="#009688">
            <g id="Group-Copy" transform="translate(24.000000, 46.000000)" sketch:type="MSShapeGroup">
                <path d="M11.1917191,73.940826 C10.9003204,73.8528482 10.574981,73.9182733 10.3429785,74.1442469 L8.50951142,75.9768208 C6.15108009,74.7748292 4.21646079,72.8522677 3.01714866,70.4869143 L4.8497226,68.6438455 C5.08440461,68.4256873 5.14960646,68.1003479 5.05894909,67.8091725 C4.75102665,66.8758036 4.58355614,65.8761163 4.58355614,64.834673 C4.58355614,64.3751339 4.2086455,64 3.75066948,64 L0.832886657,64 C0.375133937,64.0008932 0,64.3751339 0,64.834673 C0,72.6586718 6.34110329,79.0015615 14.1677816,79.0015615 C14.6257576,79.0015615 14.9999984,78.6284372 14.9999984,78.1677816 L14.9999984,75.2526783 C15.0008916,74.7931393 14.6257576,74.4171121 14.1677816,74.4171121 C13.1263384,74.4171121 12.125088,74.2523212 11.1917191,73.940826 Z" id="Page-1"></path>
            </g>
        </g>
    </g>
</svg>
