<?xml version="1.0" encoding="UTF-8" standalone="no"?>
<svg width="19px" height="22px" viewBox="0 0 19 22" version="1.1" xmlns="http://www.w3.org/2000/svg" xmlns:xlink="http://www.w3.org/1999/xlink">
    <!-- Generator: Sketch 3.6.1 (26313) - http://www.bohemiancoding.com/sketch -->
    <title>missing due date icon 17x18</title>
    <desc>Created with Sketch.</desc>
    <defs></defs>
    <g id="no-due-date-icon" stroke="none" stroke-width="1" fill="none" fill-rule="evenodd">
        <g id="missing-due-date-icon-17x18">
            <rect id="Rectangle-5-Copy" stroke="#AEB7C8" stroke-width="1.35" x="1" y="2.8" width="17" height="17.2125008" rx="1.35"></rect>
            <rect id="Rectangle-6-Copy-2" fill="#AEB7C8" x="13.5555556" y="1" width="1.77777778" height="1.8"></rect>
            <rect id="Rectangle-6-Copy-3" fill="#AEB7C8" x="3.66666667" y="1" width="1.77777778" height="1.8"></rect>
            <g id="Group-Copy-2" transform="translate(5.900002, 6.000000)" fill="#AEB7C8">
                <path d="M3.31031996,0.000543052018 C1.82081139,0.000543052018 0.853273403,0.614599121 0.41406115,1.35287834 C-0.0250098777,2.0910218 0.000269541387,2.86432787 0.000269541387,3.18255635 L1.32440269,3.18255635 C1.32440269,2.86432787 1.34968211,2.36472001 1.57253643,1.98919954 C1.79539075,1.61381483 2.15184468,1.27332122 3.31031996,1.27332122 C4.18973304,1.27332122 4.66961833,1.4891844 4.93441671,1.72093185 C5.19865019,1.95213624 5.29623722,2.23112922 5.29623722,2.54609939 C5.29623722,3.60667998 4.84939878,3.92287202 4.17914111,4.53475588 C3.50888344,5.1467755 2.64825338,6.04416896 2.64825338,7.63721206 L2.64825338,7.95544054 L3.97238653,7.95544054 L3.97238653,7.63721206 C3.97238653,6.43014318 4.43574839,6.05625187 5.08948265,5.45970923 C5.7432169,4.86248777 6.62037037,4.03107513 6.62037037,2.54609939 C6.62037037,1.93828842 6.38692411,1.26856951 5.82371561,0.775885571 C5.2605071,0.283201627 4.41753027,0 3.31031996,0 L3.31031996,0.000543052018 Z" id="Page-1"></path>
                <ellipse id="Oval-2" cx="3.29012835" cy="9.64285714" rx="0.802469136" ry="0.771428571"></ellipse>
            </g>
        </g>
    </g>
</svg>
