<?xml version="1.0" encoding="UTF-8" standalone="no"?>
<svg width="17px" height="15px" viewBox="0 0 17 15" version="1.1" xmlns="http://www.w3.org/2000/svg" xmlns:xlink="http://www.w3.org/1999/xlink" xmlns:sketch="http://www.bohemiancoding.com/sketch/ns">
    <!-- Generator: Sketch 3.4 (15575) - http://www.bohemiancoding.com/sketch -->
    <title>Imported Layers</title>
    <desc>Created with Sketch.</desc>
    <defs></defs>
    <g id="dashboard" stroke="none" stroke-width="1" fill="none" fill-rule="evenodd" sketch:type="MSPage">
        <g sketch:type="MSArtboardGroup" transform="translate(-272.000000, -177.000000)" id="Imported-Layers" fill="#AEB7C7">
            <path d="M286.750612,185.000577 L283.750804,185.000577 C283.750804,185.000577 283.375711,185.032595 283.375711,185.625031 L283.370103,185.611242 C283.311677,187.147604 282.051085,188.375478 280.500935,188.375478 C278.950785,188.375478 277.690193,187.147604 277.631767,185.611242 L277.626158,185.625031 C277.626158,185.03166 277.251065,185.000577 277.251065,185.000577 L274.251258,185.000577 C273.250543,185.000577 273.62587,184.126062 273.62587,184.126062 L275.125773,178.62587 C275.125773,178.62587 275.250804,178.125512 275.750227,178.125512 L285.375739,178.125512 C285.876096,178.125512 286.000192,178.614885 286.000192,178.614885 L287.375065,184.104094 C287.375065,184.105029 287.750158,185.000577 286.750612,185.000577 L286.750612,185.000577 Z M274.874777,177 L286.125223,177 C286.470402,177 286.875643,177.250062 286.999739,177.625155 L289,184.750516 L289,191.125223 C289,191.470402 288.71979,191.750612 288.374612,191.750612 L272.625388,191.750612 C272.28021,191.750612 272,191.470402 272,191.125223 L272,184.750516 L274.000027,177.625155 C274.125292,177.250062 274.529598,177 274.874777,177 L274.874777,177 Z" sketch:type="MSShapeGroup"></path>
        </g>
    </g>
</svg>
