<?xml version="1.0" encoding="UTF-8" standalone="no"?>
<svg width="16px" height="16px" viewBox="0 0 16 16" version="1.1" xmlns="http://www.w3.org/2000/svg" xmlns:xlink="http://www.w3.org/1999/xlink" xmlns:sketch="http://www.bohemiancoding.com/sketch/ns">
    <!-- Generator: Sketch 3.4 (15575) - http://www.bohemiancoding.com/sketch -->
    <title>bell copy 3</title>
    <desc>Created with Sketch.</desc>
    <defs></defs>
    <g id="dashboard" stroke="none" stroke-width="1" fill="none" fill-rule="evenodd" sketch:type="MSPage">
        <g sketch:type="MSArtboardGroup" transform="translate(-217.000000, -229.000000)" id="bell-copy-3-+-Notifications-(10)" fill="#AEB7C7">
            <g sketch:type="MSLayerGroup" transform="translate(24.000000, 213.000000)">
                <path d="M201.000615,32 C201.926104,32 202.667234,31.2587918 202.667234,30.3328973 L199.332766,30.3328973 C199.332766,31.2587918 200.073896,32 201.000615,32 Z M208.908451,28.4257022 L206.000472,25.5372066 L206.000472,21.000077 C206.000472,18.2408619 203.759877,16 201.000615,16 C198.240123,16 195.999528,18.2408619 195.999528,21.000077 L195.999528,25.5372066 L193.091549,28.4257022 C192.999368,28.5180454 192.980932,28.6670258 193.017805,28.7963063 C193.073113,28.9255868 193.203394,28.9994613 193.332446,28.9994613 L208.667554,28.9994613 C208.796606,28.9994613 208.926887,28.9255868 208.982195,28.7963063 C209.019068,28.6670258 209.000632,28.5180454 208.908451,28.4257022 Z" id="bell-copy-3" sketch:type="MSShapeGroup"></path>
            </g>
        </g>
    </g>
</svg>
