<?xml version="1.0" encoding="UTF-8" standalone="no"?>
<svg width="14px" height="14px" viewBox="0 0 14 14" version="1.1" xmlns="http://www.w3.org/2000/svg" xmlns:xlink="http://www.w3.org/1999/xlink" xmlns:sketch="http://www.bohemiancoding.com/sketch/ns">
    <!-- Generator: Sketch 3.3.3 (12072) - http://www.bohemiancoding.com/sketch -->
    <title>urgent-icon-m copy</title>
    <desc>Created with Sketch.</desc>
    <defs></defs>
    <g id="Page-1" stroke="none" stroke-width="1" fill="none" fill-rule="evenodd" sketch:type="MSPage">
        <g id="claim-v3.0" sketch:type="MSArtboardGroup" transform="translate(-106.000000, -222.000000)" fill="#E87063">
            <g id="Group-Copy-6" sketch:type="MSLayerGroup" transform="translate(0.000000, 112.000000)">
                <g id="Calendar" transform="translate(39.000000, 0.000000)" sketch:type="MSShapeGroup">
                    <g id="Group" transform="translate(67.000000, 110.000000)">
                        <path d="M7,14 C10.8659932,14 14,10.8659932 14,7 C14,3.13400675 10.8659932,0 7,0 C3.13400675,0 0,3.13400675 0,7 C0,10.8659932 3.13400675,14 7,14 Z M5.83333333,1.75 L5.83333333,8.16666667 L8.16666667,8.16666667 L8.16666667,1.75 L5.83333333,1.75 Z M7,11.6666667 C7.64433221,11.6666667 8.16666667,11.1443322 8.16666667,10.5 C8.16666667,9.85566779 7.64433221,9.33333333 7,9.33333333 C6.35566779,9.33333333 5.83333333,9.85566779 5.83333333,10.5 C5.83333333,11.1443322 6.35566779,11.6666667 7,11.6666667 Z" id="urgent-icon-m-copy"></path>
                    </g>
                </g>
            </g>
        </g>
    </g>
</svg>