<?xml version="1.0" encoding="UTF-8" standalone="no"?>
<svg width="15px" height="17px" viewBox="0 0 15 17" version="1.1" xmlns="http://www.w3.org/2000/svg" xmlns:xlink="http://www.w3.org/1999/xlink" xmlns:sketch="http://www.bohemiancoding.com/sketch/ns">
    <!-- Generator: Sketch 3.4 (15575) - http://www.bohemiancoding.com/sketch -->
    <title>icon-label-note</title>
    <desc>Created with Sketch.</desc>
    <defs></defs>
    <g id="Page-1" stroke="none" stroke-width="1" fill="none" fill-rule="evenodd" sketch:type="MSPage">
        <g id="icon-label-note" sketch:type="MSLayerGroup" fill="#AEB7C7">
            <g id="Page-1" sketch:type="MSShapeGroup">
                <g id="reminder-clicked-new">
                    <path d="M13.6638885,1.345833 L12.3511654,0 L11.2210774,1.16603 L10.0947385,0 L8.8864549,1.255393 L7.6787068,0 L6.3858005,1.345833 L5.091823,0 L3.7994522,1.345833 L2.5060103,0 L1.2527373,1.345833 L0,0 L0,1.615 L0,14.535538 L0,16.150538 L1.290764,14.804705 L2.581528,16.150538 L3.7014398,14.984508 L4.8224228,16.150538 L6.0285641,14.894068 L7.2341699,16.150538 L8.5270762,14.804705 L9.8199825,16.150538 L11.1134245,14.804705 L12.4057952,16.150538 L13.7008439,14.804705 L14.9964282,16.150538 L14.9964282,14.535538 L14.9964282,1.615 L14.9964282,0 L13.6638885,1.345833 L13.6638885,1.345833 L13.6638885,1.345833 Z M12.3184946,12.104963 L2.6779336,12.104963 L2.6779336,9.95163 L12.3184946,9.95163 L12.3184946,12.104963 L12.3184946,12.104963 L12.3184946,12.104963 Z M12.3184946,8.874963 L2.6779336,8.874963 L2.6779336,6.72163 L12.3184946,6.72163 L12.3184946,8.874963 L12.3184946,8.874963 L12.3184946,8.874963 Z M12.3184946,5.644963 L2.6779336,5.644963 L2.6779336,3.49163 L12.3184946,3.49163 L12.3184946,5.644963 L12.3184946,5.644963 L12.3184946,5.644963 Z" id="Shape"></path>
                </g>
            </g>
        </g>
    </g>
</svg>
