<?xml version="1.0" encoding="UTF-8" standalone="no"?>
<svg width="17px" height="17px" viewBox="0 0 17 17" version="1.1" xmlns="http://www.w3.org/2000/svg" xmlns:xlink="http://www.w3.org/1999/xlink" xmlns:sketch="http://www.bohemiancoding.com/sketch/ns">
    <!-- Generator: Sketch 3.4 (15575) - http://www.bohemiancoding.com/sketch -->
    <title>Rectangle 174 + Oval 11 Copy 2 + L</title>
    <desc>Created with Sketch.</desc>
    <defs></defs>
    <g id="dashboard" stroke="none" stroke-width="1" fill="none" fill-rule="evenodd" sketch:type="MSPage">
        <g sketch:type="MSArtboardGroup" transform="translate(-26.000000, -434.000000)" id="Rectangle-174-+-Oval-11-Copy-2-+-L">
            <g sketch:type="MSLayerGroup" transform="translate(26.000000, 434.000000)">
                <rect id="Rectangle-174" fill="#AEB7C7" sketch:type="MSShapeGroup" x="0" y="0" width="17" height="17"></rect>
                <g id="Oval-11-Copy-2-+-L" transform="translate(5.000000, 3.000000)" fill="#FFFFFF" sketch:type="MSShapeGroup">
                    <g id="D">
                        <path d="M0.0345394737,11 L0.0345394737,0.822368421 L3.04029605,0.822368421 C3.72067226,0.822368421 4.34162274,0.936539428 4.90316612,1.16488487 C5.4647095,1.39323031 5.94702375,1.71826818 6.35012336,2.14000822 C6.75322296,2.56174827 7.06661072,3.07085776 7.29029605,3.66735197 C7.51398138,4.26384618 7.62582237,4.93023206 7.62582237,5.66652961 L7.62582237,6.16981908 C7.62582237,6.90611662 7.51514639,7.57133749 7.29379112,8.16550164 C7.07243584,8.7596658 6.75788307,9.26644527 6.35012336,9.68585526 C5.94236364,10.1052653 5.4507293,10.4291381 4.87520559,10.6574836 C4.29968188,10.885829 3.66009124,11 2.95641447,11 L0.0345394737,11 Z M1.80304276,2.24835526 L1.80304276,9.58799342 L2.95641447,9.58799342 C3.43640591,9.58799342 3.85813963,9.50993773 4.22162829,9.35382401 C4.58511695,9.19771029 4.88685461,8.97286331 5.12685033,8.67927632 C5.36684605,8.38568932 5.54742264,8.02686616 5.66858553,7.60279605 C5.78974841,7.17872595 5.85032895,6.70107174 5.85032895,6.16981908 L5.85032895,5.65254934 C5.85032895,4.54810303 5.61033683,3.70463559 5.13034539,3.12212171 C4.65035396,2.53960783 3.95367781,2.24835526 3.04029605,2.24835526 L1.80304276,2.24835526 Z"></path>
                    </g>
                </g>
            </g>
        </g>
    </g>
</svg>
