<?xml version="1.0" encoding="UTF-8" standalone="no"?>
<svg width="20px" height="19px" viewBox="0 0 20 19" version="1.1" xmlns="http://www.w3.org/2000/svg" xmlns:xlink="http://www.w3.org/1999/xlink" xmlns:sketch="http://www.bohemiancoding.com/sketch/ns">
    <!-- Generator: Sketch 3.4 (15575) - http://www.bohemiancoding.com/sketch -->
    <title>Shape</title>
    <desc>Created with Sketch.</desc>
    <defs></defs>
    <g id="Page-1" stroke="none" stroke-width="1" fill="none" fill-rule="evenodd" sketch:type="MSPage">
        <g id="reminder-clicked-old-copy-3" sketch:type="MSArtboardGroup" transform="translate(-1067.000000, -18.000000)" fill="#DDE8EE">
            <path d="M1084.04639,27.3737857 C1084.04639,26.9910714 1084.00839,26.6185357 1083.95275,26.2514286 L1086.16625,24.9736786 L1083.45196,20.2725357 L1081.34907,21.5475714 C1080.76618,21.0807143 1080.18668,20.7020714 1079.50811,20.4252143 L1079.50811,18 L1074.07954,18 L1074.07954,20.4252143 C1073.40096,20.7020714 1072.61111,21.0813929 1072.02821,21.5475714 L1069.76518,20.2725357 L1067.02443,24.9736786 L1069.22436,26.2514286 C1069.16871,26.6185357 1069.12461,26.9910714 1069.12461,27.3737857 C1069.12461,27.7551429 1069.15921,28.1276786 1069.21418,28.4947857 L1067,29.7725357 L1069.71225,34.4736786 L1072.02686,33.1986429 C1072.60975,33.6661786 1073.40096,34.0441429 1074.07954,34.321 L1074.07954,37 L1079.50811,37 L1079.50811,34.3216786 C1080.18668,34.0448214 1080.76618,33.6668571 1081.35043,33.1993214 L1083.50489,34.4743571 L1086.19271,29.7732143 L1083.96632,28.4954643 C1084.02129,28.1283571 1084.04639,27.7558214 1084.04639,27.3737857 L1084.04639,27.3737857 Z M1076.58211,30.7666429 C1074.70789,30.7666429 1073.18925,29.248 1073.18925,27.3737857 C1073.18925,25.4995714 1074.70789,23.9809286 1076.58211,23.9809286 C1078.45632,23.9809286 1079.97496,25.4995714 1079.97496,27.3737857 C1079.97496,29.248 1078.45564,30.7666429 1076.58211,30.7666429 L1076.58211,30.7666429 Z" id="Shape" sketch:type="MSShapeGroup"></path>
        </g>
    </g>
</svg>
