<?xml version="1.0" encoding="UTF-8" standalone="no"?>
<svg width="38px" height="37px" viewBox="0 0 38 37" version="1.1" xmlns="http://www.w3.org/2000/svg" xmlns:xlink="http://www.w3.org/1999/xlink" xmlns:sketch="http://www.bohemiancoding.com/sketch/ns">
    <!-- Generator: Sketch 3.3.3 (12072) - http://www.bohemiancoding.com/sketch -->
    <title>Group Copy 5</title>
    <desc>Created with Sketch.</desc>
    <defs></defs>
    <g id="Page-1" stroke="none" stroke-width="1" fill="none" fill-rule="evenodd" sketch:type="MSPage">
        <g id="Group-Copy-5" sketch:type="MSLayerGroup">
            <ellipse id="Oval" fill="#B5D7E5" sketch:type="MSShapeGroup" cx="19" cy="18.40625" rx="19" ry="18.40625"></ellipse>
            <path d="M19.1225806,36.8125 C28.316129,36.753125 35.9774194,30.4 37.6322581,21.96875 L26.4774194,11.1625 L17.9580645,10.746875 L14.0967742,16.03125 L15.6290323,21.49375 L9.5,27.490625 L19.1225806,36.8125 L19.1225806,36.8125 Z" id="Shape" opacity="0.15" fill="#000000" sketch:type="MSShapeGroup"></path>
            <path d="M20.8387097,8.90625 C16.4258065,8.90625 12.8709677,12.35 12.8709677,16.625 C12.8709677,18.346875 13.4225806,19.890625 14.4032258,21.196875 L9.56129032,25.8875 C9.31612903,26.125 9.19354839,26.421875 9.19354839,26.71875 C9.19354839,27.371875 9.74516129,27.90625 10.4193548,27.90625 C10.7870968,27.90625 11.0935484,27.7875 11.2774194,27.55 L11.2774194,27.55 L16.1193548,22.859375 C17.4064516,23.809375 19.0612903,24.34375 20.8387097,24.34375 C25.2516129,24.34375 28.8064516,20.9 28.8064516,16.625 C28.8064516,12.35 25.2516129,8.90625 20.8387097,8.90625 L20.8387097,8.90625 Z M20.8387097,21.96875 C17.7741935,21.96875 15.3225806,19.59375 15.3225806,16.625 C15.3225806,13.65625 17.7741935,11.28125 20.8387097,11.28125 C23.9032258,11.28125 26.3548387,13.65625 26.3548387,16.625 C26.3548387,19.59375 23.9032258,21.96875 20.8387097,21.96875 L20.8387097,21.96875 Z" id="Shape" fill="#FFFCF2" sketch:type="MSShapeGroup"></path>
        </g>
    </g>
</svg>
