<?xml version="1.0" encoding="UTF-8" standalone="no"?>
<svg width="14px" height="11px" viewBox="0 0 14 11" version="1.1" xmlns="http://www.w3.org/2000/svg" xmlns:xlink="http://www.w3.org/1999/xlink" xmlns:sketch="http://www.bohemiancoding.com/sketch/ns">
    <!-- Generator: Sketch 3.4.2 (15855) - http://www.bohemiancoding.com/sketch -->
    <title></title>
    <desc>Created with Sketch.</desc>
    <defs></defs>
    <g id="Page-1" stroke="none" stroke-width="1" fill="none" fill-rule="evenodd" sketch:type="MSPage">
        <g id="icon-envelope" sketch:type="MSLayerGroup" fill="#999999">
            <g id="dashboard" sketch:type="MSShapeGroup">
                <g id="detail">
                    <g id="Type-something">
                        <path d="M12.9691868,9.75059256 C12.9691868,9.88309026 12.8522771,10 12.7197794,10 L1.24703719,10 C1.11453949,10 0.997629754,9.88309026 0.997629754,9.75059256 L0.997629754,3.76481404 C1.16130338,3.95186962 1.34056498,4.12333723 1.53541454,4.27921688 C2.64995403,5.13655495 3.77228751,6.00948099 4.85565107,6.91358295 C5.44019975,7.40460384 6.16504012,8.00474049 6.97561429,8.00474049 L6.98340827,8.00474049 L6.99120226,8.00474049 C7.80177643,8.00474049 8.5266168,7.40460384 9.11116548,6.91358295 C10.194529,6.00948099 11.3168625,5.13655495 12.431402,4.27921688 C12.6262516,4.12333723 12.8055132,3.95186962 12.9691868,3.76481404 L12.9691868,9.75059256 Z M12.9691868,1.55911701 C12.9691868,2.22160552 12.3300802,3.08673757 11.8234714,3.48423067 C10.7790777,4.30259883 9.73468408,5.12876097 8.69808441,5.95492311 C8.28500334,6.29006435 7.53678103,7.00711074 6.99120226,7.00711074 L6.98340827,7.00711074 L6.97561429,7.00711074 C6.43003552,7.00711074 5.68181321,6.29006435 5.26873214,5.95492311 C4.23213247,5.12876097 3.18773882,4.30259883 2.14334517,3.48423067 C1.44188675,2.93085792 0.997629754,2.15925366 0.997629754,1.27073966 C0.997629754,1.13824195 1.11453949,1.02133222 1.24703719,1.02133222 L12.7197794,1.02133222 C13.0159507,1.02133222 12.9691868,1.36426745 12.9691868,1.55911701 L12.9691868,1.55911701 Z M13.9668165,1.27073966 C13.9668165,0.584869201 13.4056498,0.0237024645 12.7197794,0.0237024645 L1.24703719,0.0237024645 C0.561166736,0.0237024645 0,0.584869201 0,1.27073966 L0,9.75059256 C0,10.436463 0.561166736,10.9976298 1.24703719,10.9976298 L12.7197794,10.9976298 C13.4056498,10.9976298 13.9668165,10.436463 13.9668165,9.75059256 L13.9668165,1.27073966 Z" id=""></path>
                    </g>
                </g>
            </g>
        </g>
    </g>
</svg>
