<?xml version="1.0" encoding="UTF-8" standalone="no"?>
<svg width="14px" height="11px" viewBox="0 0 14 11" version="1.1" xmlns="http://www.w3.org/2000/svg" xmlns:xlink="http://www.w3.org/1999/xlink" xmlns:sketch="http://www.bohemiancoding.com/sketch/ns">
    <!-- Generator: Sketch 3.4.2 (15855) - http://www.bohemiancoding.com/sketch -->
    <title></title>
    <desc>Created with Sketch.</desc>
    <defs></defs>
    <g id="Page-1" stroke="none" stroke-width="1" fill="none" fill-rule="evenodd" sketch:type="MSPage">
        <g id="icon-edit" sketch:type="MSLayerGroup" fill="#999999">
            <g id="dashboard" sketch:type="MSShapeGroup">
                <g id="detail">
                    <g id="Type-something">
                        <path d="M6.93750827,8.24999672 L6.50000775,8.24999672 L6.50000775,7.49999583 L5.75000685,7.49999583 L5.75000685,7.06249531 L6.65625793,6.15624423 L7.84375935,7.34374564 L6.93750827,8.24999672 Z M10.3750124,2.62499002 C10.445325,2.6953026 10.4375124,2.81249024 10.3671999,2.88280282 L7.6328216,5.61718108 C7.56250902,5.68749367 7.44532138,5.69530618 7.37500879,5.62499359 C7.30469621,5.55468101 7.31250872,5.43749337 7.3828213,5.36718079 L10.1171996,2.63280253 C10.1875121,2.56248994 10.3046998,2.55467743 10.3750124,2.62499002 L10.3750124,2.62499002 Z M11.0000131,7.26562055 C11.0000131,7.16405793 10.937513,7.07812032 10.8437629,7.03905778 C10.7500128,6.99999523 10.6484502,7.01562025 10.5703251,7.09374534 L10.0703245,7.59374594 C10.0234494,7.640621 10.0000119,7.70312107 10.0000119,7.76562114 L10.0000119,8.74999732 C10.0000119,9.43749814 9.43751125,9.99999881 8.75001043,9.99999881 L2.25000268,9.99999881 C1.56250186,9.99999881 1.00000119,9.43749814 1.00000119,8.74999732 L1.00000119,2.24998957 C1.00000119,1.56248875 1.56250186,0.999988079 2.25000268,0.999988079 L8.75001043,0.999988079 C8.86719807,0.999988079 8.98438571,1.0156131 9.10157335,1.04686313 C9.18751095,1.07811317 9.28126106,1.05467564 9.35157365,0.98436306 L9.7343866,0.601550104 C9.79688668,0.53905003 9.82032421,0.460924936 9.80469919,0.374987334 C9.78907417,0.296862241 9.7343866,0.226549657 9.66407402,0.19529962 C9.37501118,0.0624869615 9.0625108,-1.31130219e-05 8.75001043,-1.31130219e-05 L2.25000268,-1.31130219e-05 C1.0078137,-1.31130219e-05 0,1.00780059 0,2.24998957 L0,8.74999732 C0,9.9921863 1.0078137,11 2.25000268,11 L8.75001043,11 C9.99219941,11 11.0000131,9.9921863 11.0000131,8.74999732 L11.0000131,7.26562055 Z M10.2500122,1.49998868 L5.00000596,6.74999493 L5.00000596,8.99999762 L7.25000864,8.99999762 L12.5000149,3.74999136 L10.2500122,1.49998868 Z M13.7187664,2.5312399 C14.0078292,2.24217706 14.0078292,1.75780148 13.7187664,1.46873864 L12.5312649,0.281237222 C12.2422021,-0.00782562234 11.7578265,-0.00782562234 11.4687637,0.281237222 L10.7500128,0.999988079 L13.0000155,3.24999076 L13.7187664,2.5312399 Z" id=""></path>
                    </g>
                </g>
            </g>
        </g>
    </g>
</svg>
