<?xml version="1.0" encoding="UTF-8" standalone="no"?>
<svg width="7px" height="67px" viewBox="0 0 7 67" version="1.1" xmlns="http://www.w3.org/2000/svg" xmlns:xlink="http://www.w3.org/1999/xlink" xmlns:sketch="http://www.bohemiancoding.com/sketch/ns">
    <!-- Generator: Sketch 3.3.3 (12072) - http://www.bohemiancoding.com/sketch -->
    <title>Group + Triangle 1 + Triangle 1 Copy</title>
    <desc>Created with Sketch.</desc>
    <defs></defs>
    <g id="sidebar" stroke="none" stroke-width="1" fill="none" fill-rule="evenodd" sketch:type="MSPage">
        <g id="sidebar-shown" sketch:type="MSArtboardGroup" transform="translate(-291.000000, -382.000000)" fill="#6F7D8F">
            <g id="Group" sketch:type="MSLayerGroup" transform="translate(-1.000000, 79.000000)">
                <g id="Group-+-Triangle-1-+-Triangle-1-Copy" transform="translate(292.000000, 302.000000)" sketch:type="MSShapeGroup">
                    <g id="Group" transform="translate(4.500000, 34.500000) scale(-1, 1) translate(-4.500000, -34.500000) translate(3.000000, 18.000000)">
                        <circle id="Oval-1" cx="1.5" cy="6.5" r="1.5"></circle>
                        <circle id="Oval-1-Copy-2" cx="1.5" cy="11.5" r="1.5"></circle>
                        <circle id="Oval-1-Copy-3" cx="1.5" cy="16.5" r="1.5"></circle>
                        <circle id="Oval-1-Copy-4" cx="1.5" cy="21.5" r="1.5"></circle>
                        <circle id="Oval-1-Copy-5" cx="1.5" cy="26.5" r="1.5"></circle>
                        <circle id="Oval-1-Copy-6" cx="1.5" cy="31.5" r="1.5"></circle>
                        <circle id="Oval-1-Copy" cx="1.5" cy="1.5" r="1.5"></circle>
                    </g>
                    <polygon id="Triangle-1" transform="translate(3.500000, 4.500000) scale(1, -1) rotate(-90.000000) translate(-3.500000, -4.500000) " points="3.5 1 7 8 0 8 "></polygon>
                    <polygon id="Triangle-1-Copy" transform="translate(3.500000, 64.500000) scale(1, -1) rotate(-90.000000) translate(-3.500000, -64.500000) " points="3.5 61 7 68 0 68 "></polygon>
                </g>
            </g>
        </g>
    </g>
</svg>
