<?xml version="1.0" encoding="UTF-8" standalone="no"?>
<svg width="15px" height="16px" viewBox="0 0 15 16" version="1.1" xmlns="http://www.w3.org/2000/svg" xmlns:xlink="http://www.w3.org/1999/xlink" xmlns:sketch="http://www.bohemiancoding.com/sketch/ns">
    <!-- Generator: Sketch 3.4 (15575) - http://www.bohemiancoding.com/sketch -->
    <title>follow up icon</title>
    <desc>Created with Sketch.</desc>
    <defs></defs>
    <g id="Page-1" stroke="none" stroke-width="1" fill="none" fill-rule="evenodd" sketch:type="MSPage">
        <g id="follow-up-icon" sketch:type="MSLayerGroup">
            <g sketch:type="MSShapeGroup">
                <g transform="translate(0.000000, 0.500000)">
                    <g id="Page-1" fill="#AEB7C7">
                        <path d="M14.7655479,14.8972603 L9.65506849,13.0446575 C8.77376712,13.4453425 7.84109589,13.6475342 6.88027397,13.6475342 C3.15842466,13.6475342 0.130890411,10.62 0.130890411,6.89712329 C0.130890411,3.17527397 3.15842466,0.146917808 6.88027397,0.146917808 C10.6023288,0.146917808 13.6306849,3.17445205 13.6306849,6.89712329 C13.6306849,8.415 13.1161644,9.88315068 12.1754795,11.0743151 L14.7655479,14.8972603 Z M9.60143836,11.9843836 L12.2638356,12.9493151 L10.9458904,11.0028082 L11.1969863,10.7186301 C12.135411,9.66 12.6521918,8.30260274 12.6521918,6.89794521 C12.6521918,3.71547945 10.0629452,1.12684932 6.88109589,1.12684932 C3.69945205,1.12684932 1.11,3.71547945 1.11,6.89794521 C1.11,10.0812329 3.69863014,12.6690411 6.88027397,12.6690411 C7.76013699,12.6690411 8.61246575,12.470137 9.41506849,12.0760274 L9.60143836,11.9843836 Z" id="Fill-1"></path>
                    </g>
                    <circle id="Oval-35" fill="#AEB7C7" cx="7" cy="7" r="6"></circle>
                    <rect id="Rectangle-84" fill="#AEB7C7" x="10" y="11" width="2" height="2"></rect>
                    <rect id="Rectangle-84" fill="#AEB7C7" x="12" y="12" width="0.5" height="1"></rect>
                    <path d="M7.06746575,3.54287671 C6.58746575,3.54287671 6.19890411,3.86547945 6.19890411,4.26369863 L6.50075342,7.54664384 C6.50075342,7.94465753 6.58746575,8.26726027 7.06746575,8.26726027 C7.54726027,8.26726027 7.63315068,7.94465753 7.63315068,7.54664384 L7.93582192,4.26369863 C7.93582192,3.86547945 7.54664384,3.54287671 7.06746575,3.54287671 L7.06746575,3.54287671 Z" id="Fill-2" fill="#FFFFFF"></path>
                    <path d="M7.78890411,9.67849315 C7.78890411,10.6407534 6.34582192,10.6407534 6.34582192,9.67849315 C6.34582192,8.7160274 7.78890411,8.7160274 7.78890411,9.67849315" id="Fill-3" fill="#FFFFFF"></path>
                </g>
            </g>
        </g>
    </g>
</svg>
