<?xml version="1.0" encoding="UTF-8" standalone="no"?>
<svg width="38px" height="38px" viewBox="0 0 38 38" version="1.1" xmlns="http://www.w3.org/2000/svg" xmlns:xlink="http://www.w3.org/1999/xlink" xmlns:sketch="http://www.bohemiancoding.com/sketch/ns">
    <!-- Generator: Sketch 3.3.3 (12072) - http://www.bohemiancoding.com/sketch -->
    <title>settings icon</title>
    <desc>Created with Sketch.</desc>
    <defs></defs>
    <g id="home" stroke="none" stroke-width="1" fill="none" fill-rule="evenodd" sketch:type="MSPage">
        <g id="sidebar-hidden" sketch:type="MSArtboardGroup" transform="translate(-1096.000000, -25.000000)">
            <g id="header" sketch:type="MSLayerGroup">
                <g id="Branding-2-+-Dashboard_HIVE-RGB-+-settings-icon-+-Group-+-Group-Copy-5-+-Group" transform="translate(30.000000, 19.000000)" sketch:type="MSShapeGroup">
                    <g id="settings-icon-+-Group-+-Group-Copy-5-+-Group" transform="translate(1066.000000, 6.000000)">
                        <g id="settings-icon">
                            <g id="Group-Copy">
                                <ellipse id="Oval" fill="#A5A9BD" cx="19" cy="18.9037162" rx="19" ry="18.9037162"></ellipse>
                                <path d="M13.7922298,28.3279931 C16.5087984,31.4064999 21.9419355,37.5635135 21.9419355,37.5635135 C26.7737122,36.8110679 31.0006422,34.2819333 33.9119279,30.6440163 C35.2475,28.9750973 36.3061846,27.0728263 37.0193548,25.0016892 L25.7127436,11.9925419 C25.7127436,11.9925419 24.6001661,12.9529249 24.1109368,12.4782877 L23.872234,13.6883903 C23.872234,13.6883903 16.1101648,14.1145723 14.5699189,16.8256891 C13.000782,19.5876597 11.3915442,25.6074556 11.3915442,25.6074556 C11.3915442,25.6074556 12.9920013,27.4211473 13.7922298,28.3279931 Z" id="Long_Shadow_17_" opacity="0.15" fill="#000000"></path>
                            </g>
                            <path d="M25.7451968,19.7470005 C25.7451968,19.4540568 25.8430531,19.0632568 25.8430531,18.7700005 C25.8430531,18.4767441 25.8430531,18.0859441 25.7451968,17.7930004 L27.7970532,16.3276567 C27.9921405,16.2298003 28.0899969,15.9368566 27.8945969,15.6436003 L25.9405968,12.2239438 C25.8430531,11.9310001 25.5497967,11.8331438 25.3543967,11.9310001 L23.0095966,13.0055439 C22.5209403,12.6147438 21.8371966,12.2239438 21.2509965,12.0288565 L20.9577402,9.4883437 C20.9577402,9.19540001 20.7626528,9 20.4693965,9 L16.5613963,9 C16.26814,9 16.0730526,9.19540001 16.0730526,9.4883437 L15.7797963,11.9310001 C15.0957399,12.2239438 14.5098526,12.5172002 14.0211962,12.9080002 L11.6763961,11.9310001 C11.4809961,11.8331438 11.1877398,11.9310001 11.0901961,12.1264001 L9.13619598,15.5460566 C8.94079597,15.8390003 8.94079597,16.131944 9.23373966,16.2298003 L11.2855961,17.7930004 C11.2855961,18.0859441 11.1877398,18.4767441 11.1877398,18.7700005 C11.1877398,19.0632568 11.1877398,19.4540568 11.2855961,19.7470005 L9.23373966,21.2123443 C9.0386523,21.3102006 8.94079597,21.6031443 9.13619598,21.8964006 L11.0901961,25.3160571 C11.1877398,25.6090008 11.4809961,25.7068571 11.6763961,25.6090008 L14.0211962,24.534457 C14.5098526,24.9252571 15.1935963,25.3160571 15.7797963,25.5111445 L16.0730526,28.0516572 C16.0730526,28.3446009 16.26814,28.5400009 16.5613963,28.5400009 L20.4693965,28.5400009 C20.7626528,28.5400009 20.9577402,28.3446009 20.9577402,28.0516572 L21.2509965,25.5111445 C21.9350529,25.2182008 22.5209403,24.9252571 23.0095966,24.534457 L25.3543967,25.6090008 C25.5497967,25.7068571 25.8430531,25.6090008 25.9405968,25.4136008 L27.8945969,21.9939443 C27.9921405,21.7988569 27.9921405,21.5056006 27.7970532,21.3102006 L25.7451968,19.7470005 Z M18.5153964,22.6780006 C16.3659963,22.6780006 14.6073962,20.9194006 14.6073962,18.7700005 C14.6073962,16.6206004 16.3659963,14.8620003 18.5153964,14.8620003 C20.6647965,14.8620003 22.4233966,16.6206004 22.4233966,18.7700005 C22.4233966,20.9194006 20.6647965,22.6780006 18.5153964,22.6780006 L18.5153964,22.6780006 Z" id="Imported-Layers" fill="#FBF8F2"></path>
                        </g>
                    </g>
                </g>
            </g>
        </g>
    </g>
</svg>
