<?xml version="1.0" encoding="UTF-8" standalone="no"?>
<svg width="18px" height="17px" viewBox="0 0 18 17" version="1.1" xmlns="http://www.w3.org/2000/svg" xmlns:xlink="http://www.w3.org/1999/xlink" xmlns:sketch="http://www.bohemiancoding.com/sketch/ns">
    <!-- Generator: Sketch 3.4 (15575) - http://www.bohemiancoding.com/sketch -->
    <title>Shape</title>
    <desc>Created with Sketch.</desc>
    <defs></defs>
    <g id="Page-1" stroke="none" stroke-width="1" fill="none" fill-rule="evenodd" sketch:type="MSPage">
        <g id="reminder-clicked-old-copy-3" sketch:type="MSArtboardGroup" transform="translate(-24.000000, -122.000000)" fill="#404040">
            <g id="Group" sketch:type="MSLayerGroup" transform="translate(0.000000, 50.000000)">
                <path d="M39.4441845,73.5490385 L37.9307395,72 L36.6365374,73.342087 L35.3538745,72 L33.9801134,73.4455627 L32.6093889,72 L31.1421003,73.5490385 L29.6748116,72 L28.2087377,73.5490385 L26.7420564,72 L25.3713318,73.5490385 L24,72 L24,73.8588462 L24,86.8707698 C24,87.8974725 24.6255411,88.2611868 25.6324801,88.2611868 L38.993552,88.2611868 C39.9998836,88.2611868 41.0050006,87.8974725 41.0050006,86.8707698 L41.0050006,73.8588462 L41.0050006,72 L39.4441845,73.5490385 L39.4441845,73.5490385 Z M31.8951789,85.7827251 L25.8219644,85.7827251 L25.8219644,78.9669556 L31.8951789,78.9669556 L31.8951789,85.7827251 L31.8951789,85.7827251 Z M39.1830363,85.7827251 L33.1098218,85.7827251 L33.1098218,84.5434943 L39.1830363,84.5434943 L39.1830363,85.7827251 L39.1830363,85.7827251 Z M39.1830363,83.9238789 L33.1098218,83.9238789 L33.1098218,82.6846481 L39.1830363,82.6846481 L39.1830363,83.9238789 L39.1830363,83.9238789 Z M39.1830363,82.0650327 L33.1098218,82.0650327 L33.1098218,80.8258019 L39.1830363,80.8258019 L39.1830363,82.0650327 L39.1830363,82.0650327 Z M39.1830363,80.2061865 L33.1098218,80.2061865 L33.1098218,78.9669556 L39.1830363,78.9669556 L39.1830363,80.2061865 L39.1830363,80.2061865 Z M39.1830363,77.7277248 L25.8219644,77.7277248 L25.8219644,75.8688786 L39.1830363,75.8688786 L39.1830363,77.7277248 L39.1830363,77.7277248 Z" id="Shape" sketch:type="MSShapeGroup"></path>
            </g>
        </g>
    </g>
</svg>
