<?xml version="1.0" encoding="UTF-8" standalone="no"?>
<svg width="16px" height="16px" viewBox="0 0 16 16" version="1.1" xmlns="http://www.w3.org/2000/svg" xmlns:xlink="http://www.w3.org/1999/xlink" xmlns:sketch="http://www.bohemiancoding.com/sketch/ns">
    <!-- Generator: Sketch 3.4 (15575) - http://www.bohemiancoding.com/sketch -->
    <title>Rectangle 69 Copy 15 + 3</title>
    <desc>Created with Sketch.</desc>
    <defs></defs>
    <g id="dashboard" stroke="none" stroke-width="1" fill="none" fill-rule="evenodd" sketch:type="MSPage">
        <g id="Rectangle-69-Copy-15-+-3" sketch:type="MSLayerGroup">
            <rect id="Rectangle-69-Copy-15" fill="#FBB959" sketch:type="MSShapeGroup" x="0" y="0" width="16" height="16"></rect>
            <path d="M6.66601562,7.26464844 L7.65039062,7.26464844 C7.93750144,7.26464844 8.18587135,7.22705116 8.39550781,7.15185547 C8.60514428,7.07665978 8.78059825,6.97298243 8.921875,6.84082031 C9.06315175,6.70865819 9.16796841,6.54915458 9.23632812,6.36230469 C9.30468784,6.17545479 9.33886719,5.9681001 9.33886719,5.74023438 C9.33886719,5.26627367 9.21468223,4.89827605 8.96630859,4.63623047 C8.71793496,4.37418489 8.33854422,4.24316406 7.828125,4.24316406 C7.60937391,4.24316406 7.40657646,4.2762041 7.21972656,4.34228516 C7.03287667,4.40836622 6.87109443,4.50178976 6.734375,4.62255859 C6.59765557,4.74332743 6.49056028,4.8891593 6.41308594,5.06005859 C6.33561159,5.23095789 6.296875,5.42350153 6.296875,5.63769531 L4.63574219,5.63769531 C4.63574219,5.24576627 4.71435468,4.88346521 4.87158203,4.55078125 C5.02880938,4.21809729 5.24755719,3.92985148 5.52783203,3.68603516 C5.80810687,3.44221883 6.14306446,3.25195381 6.53271484,3.11523438 C6.92236523,2.97851494 7.34732843,2.91015625 7.80761719,2.91015625 C8.28157789,2.91015625 8.71451627,2.97053976 9.10644531,3.09130859 C9.49837436,3.21207743 9.83447125,3.39094934 10.1147461,3.62792969 C10.3950209,3.86491004 10.6126294,4.15999172 10.7675781,4.51318359 C10.9225268,4.86637546 11,5.2753883 11,5.74023438 C11,5.94075621 10.9680993,6.14355366 10.9042969,6.34863281 C10.8404945,6.55371196 10.7447923,6.75081286 10.6171875,6.93994141 C10.4895827,7.12906996 10.3300791,7.30680255 10.1386719,7.47314453 C9.94726467,7.63948651 9.72395961,7.77962183 9.46875,7.89355469 C9.77409007,7.99837292 10.0327138,8.13167237 10.2446289,8.29345703 C10.456544,8.45524169 10.6285801,8.63753154 10.7607422,8.84033203 C10.8929043,9.04313252 10.9897458,9.26074103 11.0512695,9.49316406 C11.1127933,9.7255871 11.1435547,9.96484252 11.1435547,10.2109375 C11.1435547,10.6757836 11.0592456,11.090493 10.890625,11.4550781 C10.7220044,11.8196633 10.4884455,12.1261381 10.1899414,12.3745117 C9.89143731,12.6228854 9.53825074,12.8120111 9.13037109,12.9418945 C8.72249145,13.071778 8.28157789,13.1367188 7.80761719,13.1367188 C7.37467231,13.1367188 6.96110223,13.0774746 6.56689453,12.9589844 C6.17268683,12.8404942 5.82519682,12.6639009 5.52441406,12.4291992 C5.22363131,12.1944975 4.98437589,11.9016945 4.80664062,11.5507812 C4.62890536,11.199868 4.54003906,10.7942731 4.54003906,10.3339844 L6.20117188,10.3339844 C6.20117188,10.5527355 6.23990847,10.7532543 6.31738281,10.9355469 C6.39485716,11.1178395 6.50423106,11.2739251 6.64550781,11.4038086 C6.78678456,11.5336921 6.95768129,11.6339515 7.15820312,11.7045898 C7.35872496,11.7752282 7.58203002,11.8105469 7.828125,11.8105469 C8.34310153,11.8105469 8.74869644,11.6738295 9.04492188,11.4003906 C9.34114731,11.1269518 9.48925781,10.7304713 9.48925781,10.2109375 C9.48925781,9.928384 9.44596397,9.68457134 9.359375,9.47949219 C9.27278603,9.27441304 9.14974038,9.10465562 8.99023438,8.97021484 C8.83072837,8.83577407 8.63818472,8.73665396 8.41259766,8.67285156 C8.18701059,8.60904916 7.93294412,8.57714844 7.65039062,8.57714844 L6.66601562,8.57714844 L6.66601562,7.26464844 Z" id="3" fill="#FFFFFF" sketch:type="MSShapeGroup"></path>
        </g>
    </g>
</svg>
