<?xml version="1.0" encoding="UTF-8" standalone="no"?>
<svg width="15px" height="17px" viewBox="0 0 15 17" version="1.1" xmlns="http://www.w3.org/2000/svg" xmlns:xlink="http://www.w3.org/1999/xlink" xmlns:sketch="http://www.bohemiancoding.com/sketch/ns">
    <!-- Generator: Sketch 3.4 (15575) - http://www.bohemiancoding.com/sketch -->
    <title>Shape</title>
    <desc>Created with Sketch.</desc>
    <defs></defs>
    <g id="Page-1" stroke="none" stroke-width="1" fill="none" fill-rule="evenodd" sketch:type="MSPage">
        <g id="reminder-clicked-new" sketch:type="MSArtboardGroup" transform="translate(-22.000000, -553.000000)" fill="#404040">
            <path d="M35.6638885,554.345833 L34.3511654,553 L33.2210774,554.16603 L32.0947385,553 L30.8864549,554.255393 L29.6787068,553 L28.3858005,554.345833 L27.091823,553 L25.7994522,554.345833 L24.5060103,553 L23.2527373,554.345833 L22,553 L22,554.615 L22,567.535538 L22,569.150538 L23.290764,567.804705 L24.581528,569.150538 L25.7014398,567.984508 L26.8224228,569.150538 L28.0285641,567.894068 L29.2341699,569.150538 L30.5270762,567.804705 L31.8199825,569.150538 L33.1134245,567.804705 L34.4057952,569.150538 L35.7008439,567.804705 L36.9964282,569.150538 L36.9964282,567.535538 L36.9964282,554.615 L36.9964282,553 L35.6638885,554.345833 L35.6638885,554.345833 Z M34.3184946,565.104963 L24.6779336,565.104963 L24.6779336,562.95163 L34.3184946,562.95163 L34.3184946,565.104963 L34.3184946,565.104963 Z M34.3184946,561.874963 L24.6779336,561.874963 L24.6779336,559.72163 L34.3184946,559.72163 L34.3184946,561.874963 L34.3184946,561.874963 Z M34.3184946,558.644963 L24.6779336,558.644963 L24.6779336,556.49163 L34.3184946,556.49163 L34.3184946,558.644963 L34.3184946,558.644963 Z" id="Shape" sketch:type="MSShapeGroup"></path>
        </g>
    </g>
</svg>
