<?xml version="1.0" encoding="UTF-8" standalone="no"?>
<svg width="16px" height="16px" viewBox="0 0 16 16" version="1.1" xmlns="http://www.w3.org/2000/svg" xmlns:xlink="http://www.w3.org/1999/xlink" xmlns:sketch="http://www.bohemiancoding.com/sketch/ns">
    <!-- Generator: Sketch 3.3.3 (12072) - http://www.bohemiancoding.com/sketch -->
    <title>icon notificaiton</title>
    <desc>Created with Sketch.</desc>
    <defs></defs>
    <g id="claim" stroke="none" stroke-width="1" fill="none" fill-rule="evenodd" sketch:type="MSPage">
        <g id="dashboard" sketch:type="MSArtboardGroup" transform="translate(-22.000000, -263.000000)" fill="#FF9800">
            <g id="icon-notificaiton" sketch:type="MSLayerGroup" transform="translate(22.000000, 263.000000)">
                <path d="M8.00061454,16 C8.92610429,16 9.66723353,15.2587918 9.66723353,14.3328973 L6.33276647,14.3328973 C6.33276647,15.2587918 7.07389571,16 8.00061454,16 Z M15.9084513,12.4257022 L13.0004715,9.53720662 L13.0004715,5.00007695 C13.0004715,2.24086187 10.7598768,0 8.00061454,0 C5.24012319,0 2.99952848,2.24086187 2.99952848,5.00007695 L2.99952848,9.53720662 L0.0915487343,12.4257022 C-0.000631519771,12.5180454 -0.0190675706,12.6670258 0.017804531,12.7963063 C0.0731126835,12.9255868 0.203394109,12.9994613 0.332446465,12.9994613 L15.6675535,12.9994613 C15.7966059,12.9994613 15.9268873,12.9255868 15.9821955,12.7963063 C16.0190676,12.6670258 16.0006315,12.5180454 15.9084513,12.4257022 Z" id="bell-copy-3" sketch:type="MSShapeGroup"></path>
            </g>
        </g>
    </g>
</svg>
