<?xml version="1.0" encoding="UTF-8" standalone="no"?>
<svg width="12px" height="14px" viewBox="0 0 12 14" version="1.1" xmlns="http://www.w3.org/2000/svg" xmlns:xlink="http://www.w3.org/1999/xlink" xmlns:sketch="http://www.bohemiancoding.com/sketch/ns">
    <!-- Generator: Sketch 3.4.2 (15855) - http://www.bohemiancoding.com/sketch -->
    <title></title>
    <desc>Created with Sketch.</desc>
    <defs></defs>
    <g id="Page-1" stroke="none" stroke-width="1" fill="none" fill-rule="evenodd" sketch:type="MSPage">
        <g id="dashboard" sketch:type="MSLayerGroup" fill="#999999">
            <g id="detail" sketch:type="MSShapeGroup">
                <g id="Type-something">
                    <path d="M4.0258332,5.70963563 C4.0258332,5.56810243 3.91575182,5.45802105 3.77421862,5.45802105 L3.27098947,5.45802105 C3.12945628,5.45802105 3.0193749,5.56810243 3.0193749,5.70963563 L3.0193749,10.238698 C3.0193749,10.3802312 3.12945628,10.4903126 3.27098947,10.4903126 L3.77421862,10.4903126 C3.91575182,10.4903126 4.0258332,10.3802312 4.0258332,10.238698 L4.0258332,5.70963563 Z M6.0387498,5.70963563 C6.0387498,5.56810243 5.92866842,5.45802105 5.78713522,5.45802105 L5.28390607,5.45802105 C5.14237288,5.45802105 5.0322915,5.56810243 5.0322915,5.70963563 L5.0322915,10.238698 C5.0322915,10.3802312 5.14237288,10.4903126 5.28390607,10.4903126 L5.78713522,10.4903126 C5.92866842,10.4903126 6.0387498,10.3802312 6.0387498,10.238698 L6.0387498,5.70963563 Z M8.0516664,5.70963563 C8.0516664,5.56810243 7.94158502,5.45802105 7.80005182,5.45802105 L7.29682267,5.45802105 C7.15528948,5.45802105 7.0452081,5.56810243 7.0452081,5.70963563 L7.0452081,10.238698 C7.0452081,10.3802312 7.15528948,10.4903126 7.29682267,10.4903126 L7.80005182,10.4903126 C7.94158502,10.4903126 8.0516664,10.3802312 8.0516664,10.238698 L8.0516664,5.70963563 Z M9.0581247,11.4024154 C9.0581247,11.7798372 8.8458249,12 8.80651012,12 L2.26453117,12 C2.2252164,12 2.0129166,11.7798372 2.0129166,11.4024154 L2.0129166,3.9483336 L9.0581247,3.9483336 L9.0581247,11.4024154 Z M3.77421862,2.9418753 L4.15950344,2.02190951 C4.18309231,1.99045769 4.24599595,1.94327996 4.29317369,1.935417 L6.78573057,1.935417 C6.82504535,1.94327996 6.89581194,1.99045769 6.91940081,2.02190951 L7.29682267,2.9418753 L3.77421862,2.9418753 Z M11.0710413,3.19348988 C11.0710413,3.05195668 10.9609599,2.9418753 10.8194267,2.9418753 L8.38977348,2.9418753 L7.8393666,1.62876174 C7.68210749,1.24347692 7.21033016,0.928958702 6.79359352,0.928958702 L4.27744777,0.928958702 C3.86071113,0.928958702 3.38893381,1.24347692 3.2316747,1.62876174 L2.68126781,2.9418753 L0.251614575,2.9418753 C0.110081377,2.9418753 0,3.05195668 0,3.19348988 L0,3.69671903 C0,3.83825223 0.110081377,3.9483336 0.251614575,3.9483336 L1.0064583,3.9483336 L1.0064583,11.4338672 C1.0064583,12.2987923 1.57259109,13.0064583 2.26453117,13.0064583 L8.80651012,13.0064583 C9.4984502,13.0064583 10.064583,12.2673405 10.064583,11.4024154 L10.064583,3.9483336 L10.8194267,3.9483336 C10.9609599,3.9483336 11.0710413,3.83825223 11.0710413,3.69671903 L11.0710413,3.19348988 Z" id=""></path>
                </g>
            </g>
        </g>
    </g>
</svg>
