<?xml version="1.0" encoding="UTF-8" standalone="no"?>
<svg width="17px" height="15px" viewBox="0 0 17 15" version="1.1" xmlns="http://www.w3.org/2000/svg" xmlns:xlink="http://www.w3.org/1999/xlink" xmlns:sketch="http://www.bohemiancoding.com/sketch/ns">
    <!-- Generator: Sketch 3.3.3 (12072) - http://www.bohemiancoding.com/sketch -->
    <title>icon new claim </title>
    <desc>Created with Sketch.</desc>
    <defs></defs>
    <g id="claim" stroke="none" stroke-width="1" fill="none" fill-rule="evenodd" sketch:type="MSPage">
        <g id="dashboard" sketch:type="MSArtboardGroup" transform="translate(-22.000000, -221.000000)" fill="#4A8AF4">
            <g id="icon-new-claim-" sketch:type="MSLayerGroup" transform="translate(22.000000, 221.000000)">
                <path d="M14.7506118,8.00057738 L11.7508042,8.00057738 C11.7508042,8.00057738 11.3757114,8.03259465 11.3757114,8.62503093 L11.3701026,8.61124247 C11.3116769,10.1476039 10.0510847,11.3754777 8.50093481,11.3754777 C6.95078497,11.3754777 5.69019274,10.1476039 5.63176707,8.61124247 L5.6261582,8.62503093 C5.6261582,8.03165984 5.25106541,8.00057738 5.25106541,8.00057738 L2.25125787,8.00057738 C1.25054302,8.00057738 1.62586951,7.12606197 1.62586951,7.12606197 L3.12577328,1.62586951 C3.12577328,1.62586951 3.25080421,1.12551208 3.75022683,1.12551208 L13.3757389,1.12551208 C13.8760963,1.12551208 14.0001925,1.61488549 14.0001925,1.61488549 L15.3750653,7.10409392 C15.3750653,7.10502873 15.7501581,8.00057738 14.7506118,8.00057738 L14.7506118,8.00057738 Z M2.87477661,0 L14.1252234,0 C14.4704022,0 14.8756427,0.250061862 14.9997388,0.625154656 L17,7.75051552 L17,14.1252234 C17,14.4704022 16.7197905,14.7506118 16.3746116,14.7506118 L0.625388359,14.7506118 C0.280209508,14.7506118 0,14.4704022 0,14.1252234 L0,7.75051552 L2.00002749,0.625154656 C2.12529213,0.250061862 2.52959776,0 2.87477661,0 L2.87477661,0 Z" id="Imported-Layers" sketch:type="MSShapeGroup"></path>
            </g>
        </g>
    </g>
</svg>
