<?xml version="1.0" encoding="UTF-8" standalone="no"?>
<svg width="223px" height="41px" viewBox="0 0 223 41" version="1.1" xmlns="http://www.w3.org/2000/svg" xmlns:xlink="http://www.w3.org/1999/xlink" xmlns:sketch="http://www.bohemiancoding.com/sketch/ns">
    <!-- Generator: Sketch 3.3.3 (12072) - http://www.bohemiancoding.com/sketch -->
    <title>Dashboard + Dashboard_HIVE-RGB</title>
    <desc>Created with Sketch.</desc>
    <defs>
        <path id="path-1" d="M0.00774173065,0.914958866 L86.9864727,0.914958866 L86.9864727,40.9984019 L0.00774173065,40.9984019"></path>
    </defs>
    <g id="Page-1" stroke="none" stroke-width="1" fill="none" fill-rule="evenodd" sketch:type="MSPage">
        <g id="claim-v3.0-horizontalDetail" sketch:type="MSArtboardGroup" transform="translate(-31.000000, -19.000000)">
            <g id="Calendar-+-Line-+-Rectangle-77" sketch:type="MSLayerGroup" transform="translate(0.000000, 1.000000)">
                <g id="Header-Copy" transform="translate(30.000000, 17.000000)">
                    <g id="Branding-2" transform="translate(0.888430, 0.386364)">
                        <g id="Dashboard-+-Dashboard_HIVE-RGB">
                            <path d="M146.842754,17.8759375 L152.789609,32.1063086 L158.758613,17.8759375 L160.574785,17.8759375 L160.574785,34 L159.212656,34 L159.212656,26.9567969 L159.323398,19.7807031 L153.321172,34 L152.269121,34 L146.289043,19.8360742 L146.399785,26.9567969 L146.399785,34 L145.037656,34 L145.037656,17.8759375 L146.842754,17.8759375 Z M168.149551,32.0952344 L171.649004,22.0176953 L173.077578,22.0176953 L168.005586,35.9158398 C167.902226,36.1890053 167.771182,36.4953889 167.612451,36.835 C167.45372,37.1746111 167.247003,37.4920688 166.992295,37.7873828 C166.737587,38.0826968 166.420129,38.3318642 166.039912,38.5348926 C165.659695,38.7379209 165.196429,38.8394336 164.650098,38.8394336 C164.576269,38.8394336 164.491368,38.8338965 164.395391,38.8228223 C164.299414,38.811748 164.203438,38.7988282 164.107461,38.7840625 C164.011484,38.7692968 163.921045,38.7526856 163.836143,38.7342285 C163.75124,38.7157714 163.682949,38.6991602 163.63127,38.6843945 L163.620195,37.5880469 C163.70879,37.6028126 163.828759,37.6175781 163.980107,37.6323438 C164.131456,37.6471094 164.240351,37.6544922 164.306797,37.6544922 C164.661174,37.6544922 164.97494,37.6083501 165.248105,37.5160645 C165.521271,37.4237788 165.759364,37.2871982 165.962393,37.1063184 C166.165421,36.9254385 166.344452,36.6984193 166.499492,36.4252539 C166.654532,36.1520885 166.794804,35.8383221 166.920312,35.4839453 L167.496172,33.900332 L162.977891,22.0176953 L164.428613,22.0176953 L168.149551,32.0952344 Z M175.436387,34 L175.436387,17.8759375 L179.943594,17.8759375 C180.947661,17.8759375 181.872349,18.0494319 182.717686,18.3964258 C183.563022,18.7434197 184.290222,19.2380632 184.899307,19.8803711 C185.508392,20.522679 185.982733,21.2941752 186.322344,22.1948828 C186.661955,23.0955904 186.831758,24.0996429 186.831758,25.2070703 L186.831758,26.6799414 C186.831758,27.7873688 186.661955,28.7914213 186.322344,29.6921289 C185.982733,30.5928365 185.506546,31.362487 184.89377,32.0011035 C184.280993,32.63972 183.546411,33.1325178 182.69,33.4795117 C181.833589,33.8265056 180.888599,34 179.855,34 L175.436387,34 Z M176.798516,19.0387305 L176.798516,32.8482813 L179.855,32.8482813 C180.718793,32.8482813 181.497672,32.6987808 182.19166,32.3997754 C182.885648,32.10077 183.476267,31.6799539 183.963535,31.1373145 C184.450803,30.594675 184.825477,29.944994 185.087568,29.188252 C185.34966,28.4315099 185.480703,27.5954147 185.480703,26.6799414 L185.480703,25.1738477 C185.480703,24.2436086 185.347814,23.4001307 185.082031,22.6433887 C184.816249,21.8866466 184.441575,21.2425027 183.957998,20.7109375 C183.474421,20.1793723 182.893031,19.7677847 182.213809,19.4761621 C181.534586,19.1845396 180.777856,19.0387305 179.943594,19.0387305 L176.798516,19.0387305 Z M194.616934,34.2214844 C193.834352,34.2214844 193.114535,34.0756753 192.457461,33.7840527 C191.800387,33.4924302 191.233762,33.0863796 190.757568,32.5658887 C190.281375,32.0453978 189.910392,31.4270934 189.644609,30.710957 C189.378827,29.9948206 189.245937,29.208559 189.245937,28.3521484 L189.245937,27.875957 C189.245937,26.9531009 189.384364,26.1170057 189.661221,25.3676465 C189.938078,24.6182873 190.312752,23.9796804 190.785254,23.4518066 C191.257756,22.9239329 191.802233,22.5160366 192.418701,22.2281055 C193.035169,21.9401743 193.686696,21.7962109 194.373301,21.7962109 C195.133734,21.7962109 195.809255,21.9327916 196.399883,22.205957 C196.990511,22.4791225 197.487,22.8593335 197.889365,23.3466016 C198.291731,23.8338696 198.596268,24.4134146 198.802988,25.0852539 C199.009708,25.7570932 199.113066,26.4916757 199.113066,27.2890234 L199.113066,28.0974414 L190.56377,28.0974414 L190.56377,28.3521484 C190.56377,29.009222 190.663437,29.6275264 190.862773,30.2070801 C191.06211,30.7866338 191.342654,31.2905057 191.704414,31.7187109 C192.066174,32.1469162 192.498064,32.4846765 193.000098,32.732002 C193.502131,32.9793274 194.059528,33.1029883 194.672305,33.1029883 C195.381058,33.1029883 196.006745,32.9737904 196.549385,32.7153906 C197.092024,32.4569909 197.584822,32.0435575 198.027793,31.4750781 L198.858359,32.1063086 C198.659022,32.3942397 198.428312,32.6674011 198.166221,32.9258008 C197.90413,33.1842005 197.599592,33.409374 197.252598,33.6013281 C196.905604,33.7932822 196.514319,33.9446284 196.07873,34.0553711 C195.643142,34.1661138 195.155882,34.2214844 194.616934,34.2214844 L194.616934,34.2214844 Z M194.373301,22.9257813 C193.871267,22.9257813 193.406154,23.0217569 192.977949,23.2137109 C192.549744,23.405665 192.171379,23.6788264 191.842842,24.0332031 C191.514305,24.3875799 191.244835,24.8139331 191.034424,25.3122754 C190.824013,25.8106177 190.681895,26.3624774 190.608066,26.9678711 L197.795234,26.9678711 L197.795234,26.8239063 C197.780469,26.3218725 197.699259,25.8364574 197.551602,25.3676465 C197.403945,24.8988355 197.187999,24.4835565 196.90376,24.1217969 C196.61952,23.7600373 196.266994,23.4702648 195.846172,23.2524707 C195.425349,23.0346766 194.934397,22.9257813 194.373301,22.9257813 L194.373301,22.9257813 Z M208.869453,30.9545898 C208.869453,30.7109558 208.827002,30.4673254 208.7421,30.2236914 C208.657197,29.9800574 208.498468,29.7493468 208.265908,29.5315527 C208.033348,29.3137587 207.708508,29.1107334 207.291377,28.9224707 C206.874246,28.734208 206.33346,28.5699421 205.669004,28.429668 C205.004547,28.2893938 204.412083,28.1269736 203.891592,27.9424023 C203.371101,27.7578311 202.931828,27.5345033 202.57376,27.2724121 C202.215692,27.010321 201.944376,26.6984002 201.759805,26.3366406 C201.575233,25.974881 201.482949,25.5503735 201.482949,25.0631055 C201.482949,24.6201345 201.580771,24.1993184 201.776416,23.8006445 C201.972062,23.4019707 202.252606,23.0549819 202.618057,22.759668 C202.983508,22.464354 203.426472,22.229952 203.946963,22.0564551 C204.467454,21.8829581 205.052536,21.7962109 205.702227,21.7962109 C206.396214,21.7962109 207.01821,21.8866495 207.568232,22.0675293 C208.118255,22.2484091 208.583367,22.4994222 208.963584,22.8205762 C209.343801,23.1417301 209.633573,23.5200955 209.83291,23.9556836 C210.032247,24.3912717 210.131914,24.863767 210.131914,25.3731836 L208.803008,25.3731836 C208.803008,25.0631039 208.734717,24.7604116 208.598135,24.4650977 C208.461552,24.1697837 208.262218,23.9095421 208.000127,23.6843652 C207.738036,23.4591883 207.413195,23.2764655 207.025596,23.1361914 C206.637996,22.9959173 206.196877,22.9257813 205.702227,22.9257813 C205.185427,22.9257813 204.744308,22.9885345 204.378857,23.114043 C204.013406,23.2395514 203.714405,23.4019717 203.481846,23.6013086 C203.249286,23.8006455 203.079483,24.0239734 202.972432,24.2712988 C202.86538,24.5186243 202.811855,24.7677917 202.811855,25.0188086 C202.811855,25.2845912 202.852461,25.5263759 202.933672,25.7441699 C203.014883,25.961964 203.171766,26.1649893 203.404326,26.353252 C203.636886,26.5415146 203.961726,26.715009 204.378857,26.8737402 C204.795988,27.0324715 205.340465,27.1893547 206.012305,27.3443945 C206.735824,27.5142001 207.359665,27.7024599 207.883848,27.9091797 C208.40803,28.1158995 208.841766,28.3613755 209.185068,28.6456152 C209.528371,28.9298549 209.783075,29.2546954 209.949189,29.6201465 C210.115304,29.9855975 210.198359,30.4082593 210.198359,30.8881445 C210.198359,31.3827954 210.095001,31.8349882 209.888281,32.2447363 C209.681561,32.6544845 209.386252,33.0051646 209.002344,33.2967871 C208.618436,33.5884097 208.153323,33.8154289 207.606992,33.9778516 C207.060661,34.1402742 206.451585,34.2214844 205.779746,34.2214844 C205.019313,34.2214844 204.347483,34.1236631 203.764238,33.9280176 C203.180993,33.7323721 202.690041,33.4684392 202.291367,33.1362109 C201.892693,32.8039827 201.591847,32.421926 201.388818,31.9900293 C201.18579,31.5581326 201.084277,31.1096312 201.084277,30.6445117 L202.413184,30.6445117 C202.442715,31.1170141 202.56453,31.5101449 202.778633,31.823916 C202.992735,32.1376871 203.258514,32.3887002 203.575977,32.5769629 C203.893439,32.7652256 204.245965,32.8999605 204.633564,32.9811719 C205.021164,33.0623832 205.403221,33.1029883 205.779746,33.1029883 C206.28178,33.1029883 206.724744,33.0439264 207.108652,32.9258008 C207.492561,32.8076752 207.815555,32.6489463 208.077646,32.4496094 C208.339738,32.2502724 208.537226,32.0214075 208.670117,31.7630078 C208.803008,31.5046081 208.869453,31.2351381 208.869453,30.9545898 L208.869453,30.9545898 Z M216.023398,27.9645508 L214.50623,29.4263477 L214.50623,34 L213.177324,34 L213.177324,16.99 L214.50623,16.99 L214.50623,27.875957 L215.757617,26.5249023 L220.342344,22.0176953 L222.014551,22.0176953 L216.931484,27.0675391 L222.45752,34 L220.873906,34 L216.023398,27.9645508 Z" id="Dashboard" fill="#9499A0" sketch:type="MSShapeGroup"></path>
                            <g id="Dashboard_HIVE-RGB" transform="translate(0.111570, 0.613636)">
                                <path d="M5.32179468,14.7603997 L18.8290502,7.02502537 L32.3201771,14.7513127 L26.8290966,17.8959403 L18.8287921,13.3142806 L10.8128752,17.9050273 L5.32179468,14.7603997" id="Fill-1" fill="#009DCD" sketch:type="MSShapeGroup"></path>
                                <path d="M32.2879199,14.7417137 L32.2879199,30.2124624 L18.796664,37.9387497 L18.796664,31.6492385 L26.7968394,27.0678348 L26.7968394,17.8864693 L32.2879199,14.7417137" id="Fill-2" fill="#5DBBDB" sketch:type="MSShapeGroup"></path>
                                <path d="M18.8250503,37.954876 L5.31779478,30.2195016 L5.31779478,14.767183 L10.8088753,17.9116826 L10.8088753,27.075002 L18.8250503,31.6656208 L18.8250503,37.954876" id="Fill-3" fill="#F8C124" sketch:type="MSShapeGroup"></path>
                                <path d="M32.2848232,14.7399219 L37.607005,17.7879197 L37.6142306,33.2538049 L32.2917908,30.2055511 L32.2848232,14.7399219" id="Fill-4" fill="#97D0DD" sketch:type="MSShapeGroup"></path>
                                <path d="M18.8094378,37.9459169 L24.1318776,40.9939148 L37.6182305,33.2467657 L32.2959197,30.1987678 L18.8094378,37.9459169" id="Fill-5" fill="#0D465C" sketch:type="MSShapeGroup"></path>
                                <path d="M18.8453078,0.91943075 L5.32192371,8.68142628 L5.32192371,14.7775499 L18.8453078,7.01542638 L18.8453078,0.91943075" id="Fill-6" fill="#5DBBDB" sketch:type="MSShapeGroup"></path>
                                <g id="Group-10" transform="translate(0.000000, 0.004472)">
                                    <mask id="mask-2" sketch:name="Clip 8" fill="white">
                                        <use xlink:href="#path-1"></use>
                                    </mask>
                                    <g id="Clip-8"></g>
                                    <path d="M18.8627267,7.02093745 L18.8627267,0.924813825 L32.3124354,8.64623765 L32.3124354,14.7423613 L18.8627267,7.02093745" id="Fill-7" fill="#97D0DD" sketch:type="MSShapeGroup" mask="url(#mask-2)"></path>
                                    <path d="M0.0152254036,17.8300349 L0,33.3280447 L5.32243982,30.2799189 L5.3375362,14.7819091 L0.0152254036,17.8300349" id="Fill-9" fill="#C25A2D" sketch:type="MSShapeGroup" mask="url(#mask-2)"></path>
                                </g>
                                <path d="M0.0363861341,33.309863 L13.5026105,41.0028738 L18.8250503,37.955004 L5.35869693,30.2617372 L0.0363861341,33.309863" id="Fill-11" fill="#AC312F" sketch:type="MSShapeGroup"></path>
                                <path d="M63.1712118,20.0939598 C61.8899582,18.555012 59.6355343,17.5151824 57.580287,17.5151824 C53.4249487,17.5151824 49.9993426,21.0263404 49.9993426,25.0360388 C49.9993426,26.9435484 50.8397284,28.7424536 52.2316357,30.0861446 C53.6241254,31.3870869 55.6129804,32.3408417 57.580287,32.3408417 C59.5033322,32.3408417 61.9336373,31.3218087 63.1712118,29.8481391 L63.1712118,31.2790602 C61.6022585,32.5574729 59.6797958,33.3159708 57.6245485,33.3159708 C52.9829163,33.3159708 48.938814,29.5229035 48.938814,24.9493863 C48.938814,20.310591 52.9171064,16.5394756 57.6466793,16.5394756 C59.657665,16.5394756 61.6907815,17.3199255 63.1712118,18.6636164 L63.1712118,20.0939598" id="Fill-12" fill="#A1A7B2" sketch:type="MSShapeGroup"></path>
                                <path d="M77.956985,30.3247277 L82.553191,30.3247277 L82.553191,33.0993397 L74.7078424,33.0993397 L74.7078424,16.7561068 L77.956985,16.7561068 L77.956985,30.3247277" id="Fill-18" fill="#F7C124" sketch:type="MSShapeGroup"></path>
                                <path d="M101.292689,21.1129928 L101.248428,21.1129928 L99.4139057,27.0515752 L103.370067,27.0515752 L101.292689,21.1129928 L101.292689,21.1129928 Z M98.4861616,29.6528822 L97.1152203,33.0993397 L93.6896141,33.0993397 L100.187899,16.3222668 L102.70731,16.3222668 L109.027967,33.0993397 L105.558099,33.0993397 L104.276263,29.6528822 L98.4861616,29.6528822 L98.4861616,29.6528822 Z" id="Fill-19" fill="#F7C124" sketch:type="MSShapeGroup"></path>
                                <path d="M123.853818,30.5413588 L124.538706,30.5413588 C126.284705,30.5413588 127.787849,30.3247277 127.787849,28.2011646 C127.787849,26.0764461 126.019719,25.9903713 124.383791,25.9903713 L123.853818,25.9903713 L123.853818,30.5413588 L123.853818,30.5413588 Z M123.853818,23.5617915 L124.251589,23.5617915 C125.842673,23.5617915 126.616084,23.1071549 126.616084,21.4168541 C126.616084,19.74735 125.644078,19.3140876 124.273719,19.3140876 L123.853818,19.3140876 L123.853818,23.5617915 L123.853818,23.5617915 Z M120.604675,16.7561068 L124.64936,16.7561068 C127.743587,16.7561068 129.644501,17.9484448 129.644501,21.1996453 C129.644501,22.3700313 129.2246,23.7137222 128.18562,24.3641934 C130.152926,24.7113809 131.036409,26.6622168 131.036409,28.461122 C131.036409,31.6689963 128.738306,33.0993397 125.710471,33.0993397 L120.604675,33.0993397 L120.604675,16.7561068 L120.604675,16.7561068 Z" id="Fill-20" fill="#F7C124" sketch:type="MSShapeGroup"></path>
                            </g>
                        </g>
                    </g>
                </g>
            </g>
        </g>
    </g>
</svg>