<?xml version="1.0" encoding="UTF-8" standalone="no"?>
<svg width="174px" height="23px" viewBox="0 0 174 23" version="1.1" xmlns="http://www.w3.org/2000/svg" xmlns:xlink="http://www.w3.org/1999/xlink" xmlns:sketch="http://www.bohemiancoding.com/sketch/ns">
    <!-- Generator: Sketch 3.3.3 (12072) - http://www.bohemiancoding.com/sketch -->
    <title>Group</title>
    <desc>Created with Sketch.</desc>
    <defs></defs>
    <g id="Page-1" stroke="none" stroke-width="1" fill="none" fill-rule="evenodd" sketch:type="MSPage">
        <g id="Group" sketch:type="MSLayerGroup">
            <path d="M14.2323977,5.55448417 C12.9511441,4.01553637 10.6967202,2.97570677 8.641473,2.97570677 C4.48613469,2.97570677 1.06052853,6.48686471 1.06052853,10.4965632 C1.06052853,12.4040728 1.9009144,14.202978 3.2928217,15.5466689 C4.68531138,16.8476113 6.67416637,17.8013661 8.641473,17.8013661 C10.5645181,17.8013661 12.9948232,16.7823331 14.2323977,15.3086635 L14.2323977,16.7395845 C12.6634445,18.0179972 10.7409817,18.7764952 8.68573449,18.7764952 C4.0441022,18.7764952 0,14.9834279 0,10.4099107 C0,5.77111534 3.97829236,2 8.70786523,2 C10.718851,2 12.7519674,2.78044988 14.2323977,4.12414079 L14.2323977,5.55448417" id="Fill-12" fill="#A1A7B2" sketch:type="MSShapeGroup"></path>
            <path d="M29.2491426,15.5686209 L33.8453486,15.5686209 L33.8453486,18.3432328 L26,18.3432328 L26,2 L29.2491426,2 L29.2491426,15.5686209" id="Fill-18" fill="#F7C124" sketch:type="MSShapeGroup"></path>
            <path d="M52.6030752,5.79072602 L52.5588137,5.79072602 L50.7242916,11.7293084 L54.6804532,11.7293084 L52.6030752,5.79072602 L52.6030752,5.79072602 Z M49.7965475,14.3306154 L48.4256062,17.7770729 L45,17.7770729 L51.4982852,1 L54.0176956,1 L60.3383525,17.7770729 L56.8684849,17.7770729 L55.5866489,14.3306154 L49.7965475,14.3306154 L49.7965475,14.3306154 Z" id="Fill-19" fill="#F7C124" sketch:type="MSShapeGroup"></path>
            <path d="M75.2491426,15.785252 L75.9340309,15.785252 C77.6800301,15.785252 79.1831735,15.5686209 79.1831735,13.4450578 C79.1831735,11.3203393 77.4150435,11.2342645 75.7791157,11.2342645 L75.2491426,11.2342645 L75.2491426,15.785252 L75.2491426,15.785252 Z M75.2491426,8.80568471 L75.6469136,8.80568471 C77.2379976,8.80568471 78.0114088,8.3510481 78.0114088,6.66074732 C78.0114088,4.99124314 77.0394033,4.55798081 75.6690443,4.55798081 L75.2491426,4.55798081 L75.2491426,8.80568471 L75.2491426,8.80568471 Z M72,2 L76.0446846,2 C79.138912,2 81.0398264,3.19233794 81.0398264,6.44353847 C81.0398264,7.61392445 80.6199246,8.95761537 79.5809445,9.60808655 C81.5482511,9.95527409 82.4317337,11.90611 82.4317337,13.7050152 C82.4317337,16.9128895 80.1336307,18.3432328 77.1057955,18.3432328 L72,18.3432328 L72,2 L72,2 Z" id="Fill-20" fill="#F7C124" sketch:type="MSShapeGroup"></path>
            <path d="M97.8427539,1.8759375 L103.789609,16.1063086 L109.758613,1.8759375 L111.574785,1.8759375 L111.574785,18 L110.212656,18 L110.212656,10.9567969 L110.323398,3.78070313 L104.321172,18 L103.269121,18 L97.289043,3.83607422 L97.3997852,10.9567969 L97.3997852,18 L96.0376562,18 L96.0376562,1.8759375 L97.8427539,1.8759375 Z M119.149551,16.0952344 L122.649004,6.01769531 L124.077578,6.01769531 L119.005586,19.9158398 C118.902226,20.1890053 118.771182,20.4953889 118.612451,20.835 C118.45372,21.1746111 118.247003,21.4920688 117.992295,21.7873828 C117.737587,22.0826968 117.420129,22.3318642 117.039912,22.5348926 C116.659695,22.7379209 116.196429,22.8394336 115.650098,22.8394336 C115.576269,22.8394336 115.491368,22.8338965 115.395391,22.8228223 C115.299414,22.811748 115.203438,22.7988282 115.107461,22.7840625 C115.011484,22.7692968 114.921045,22.7526856 114.836143,22.7342285 C114.75124,22.7157714 114.682949,22.6991602 114.63127,22.6843945 L114.620195,21.5880469 C114.70879,21.6028126 114.828759,21.6175781 114.980107,21.6323438 C115.131456,21.6471094 115.240351,21.6544922 115.306797,21.6544922 C115.661174,21.6544922 115.97494,21.6083501 116.248105,21.5160645 C116.521271,21.4237788 116.759364,21.2871982 116.962393,21.1063184 C117.165421,20.9254385 117.344452,20.6984193 117.499492,20.4252539 C117.654532,20.1520885 117.794804,19.8383221 117.920313,19.4839453 L118.496172,17.900332 L113.977891,6.01769531 L115.428613,6.01769531 L119.149551,16.0952344 Z M126.436387,18 L126.436387,1.8759375 L130.943594,1.8759375 C131.947661,1.8759375 132.872349,2.04943186 133.717686,2.39642578 C134.563022,2.7434197 135.290222,3.23806319 135.899307,3.88037109 C136.508392,4.52267899 136.982733,5.29417518 137.322344,6.19488281 C137.661955,7.09559044 137.831758,8.0996429 137.831758,9.20707031 L137.831758,10.6799414 C137.831758,11.7873688 137.661955,12.7914213 137.322344,13.6921289 C136.982733,14.5928365 136.506546,15.362487 135.89377,16.0011035 C135.280993,16.63972 134.546411,17.1325178 133.69,17.4795117 C132.833589,17.8265056 131.888599,18 130.855,18 L126.436387,18 Z M127.798516,3.03873047 L127.798516,16.8482813 L130.855,16.8482813 C131.718793,16.8482813 132.497672,16.6987808 133.19166,16.3997754 C133.885648,16.10077 134.476267,15.6799539 134.963535,15.1373145 C135.450803,14.594675 135.825477,13.944994 136.087568,13.188252 C136.34966,12.4315099 136.480703,11.5954147 136.480703,10.6799414 L136.480703,9.17384766 C136.480703,8.24360863 136.347814,7.40013074 136.082031,6.64338867 C135.816249,5.88664661 135.441575,5.24250266 134.957998,4.7109375 C134.474421,4.17937234 133.893031,3.76778466 133.213809,3.47616211 C132.534586,3.18453956 131.777856,3.03873047 130.943594,3.03873047 L127.798516,3.03873047 Z M145.616934,18.2214844 C144.834352,18.2214844 144.114535,18.0756753 143.457461,17.7840527 C142.800387,17.4924302 142.233762,17.0863796 141.757568,16.5658887 C141.281375,16.0453978 140.910392,15.4270934 140.644609,14.710957 C140.378827,13.9948206 140.245938,13.208559 140.245938,12.3521484 L140.245938,11.875957 C140.245938,10.9531009 140.384364,10.1170057 140.661221,9.36764648 C140.938078,8.61828727 141.312752,7.97968037 141.785254,7.45180664 C142.257756,6.92393291 142.802233,6.5160366 143.418701,6.22810547 C144.035169,5.94017434 144.686696,5.79621094 145.373301,5.79621094 C146.133734,5.79621094 146.809255,5.9327916 147.399883,6.20595703 C147.990511,6.47912246 148.487,6.8593335 148.889365,7.34660156 C149.291731,7.83386962 149.596268,8.41341461 149.802988,9.08525391 C150.009708,9.7570932 150.113066,10.4916757 150.113066,11.2890234 L150.113066,12.0974414 L141.56377,12.0974414 L141.56377,12.3521484 C141.56377,13.009222 141.663437,13.6275264 141.862773,14.2070801 C142.06211,14.7866338 142.342654,15.2905057 142.704414,15.7187109 C143.066174,16.1469162 143.498064,16.4846765 144.000098,16.732002 C144.502131,16.9793274 145.059528,17.1029883 145.672305,17.1029883 C146.381058,17.1029883 147.006745,16.9737904 147.549385,16.7153906 C148.092024,16.4569909 148.584822,16.0435575 149.027793,15.4750781 L149.858359,16.1063086 C149.659022,16.3942397 149.428312,16.6674011 149.166221,16.9258008 C148.90413,17.1842005 148.599592,17.409374 148.252598,17.6013281 C147.905604,17.7932822 147.514319,17.9446284 147.07873,18.0553711 C146.643142,18.1661138 146.155882,18.2214844 145.616934,18.2214844 L145.616934,18.2214844 Z M145.373301,6.92578125 C144.871267,6.92578125 144.406154,7.02175685 143.977949,7.21371094 C143.549744,7.40566502 143.171379,7.67882635 142.842842,8.03320312 C142.514305,8.3875799 142.244835,8.81393306 142.034424,9.31227539 C141.824013,9.81061773 141.681895,10.3624774 141.608066,10.9678711 L148.795234,10.9678711 L148.795234,10.8239062 C148.780469,10.3218725 148.699259,9.83645742 148.551602,9.36764648 C148.403945,8.89883555 148.187999,8.4835565 147.90376,8.12179687 C147.61952,7.76003725 147.266994,7.47026476 146.846172,7.2524707 C146.425349,7.03467665 145.934397,6.92578125 145.373301,6.92578125 L145.373301,6.92578125 Z M159.869453,14.9545898 C159.869453,14.7109558 159.827002,14.4673254 159.7421,14.2236914 C159.657197,13.9800574 159.498468,13.7493468 159.265908,13.5315527 C159.033348,13.3137587 158.708508,13.1107334 158.291377,12.9224707 C157.874246,12.734208 157.33346,12.5699421 156.669004,12.429668 C156.004547,12.2893938 155.412083,12.1269736 154.891592,11.9424023 C154.371101,11.7578311 153.931828,11.5345033 153.57376,11.2724121 C153.215692,11.010321 152.944376,10.6984002 152.759805,10.3366406 C152.575233,9.974881 152.482949,9.55037353 152.482949,9.06310547 C152.482949,8.6201345 152.580771,8.1993184 152.776416,7.80064453 C152.972062,7.40197066 153.252606,7.05498195 153.618057,6.75966797 C153.983508,6.46435399 154.426472,6.22995204 154.946963,6.05645508 C155.467454,5.88295812 156.052536,5.79621094 156.702227,5.79621094 C157.396214,5.79621094 158.01821,5.88664949 158.568232,6.0675293 C159.118255,6.24840911 159.583367,6.49942222 159.963584,6.82057617 C160.343801,7.14173012 160.633573,7.52009548 160.83291,7.95568359 C161.032247,8.39127171 161.131914,8.86376698 161.131914,9.37318359 L159.803008,9.37318359 C159.803008,9.06310392 159.734717,8.76041163 159.598135,8.46509766 C159.461552,8.16978368 159.262218,7.90954214 159.000127,7.68436523 C158.738036,7.45918833 158.413195,7.27646555 158.025596,7.13619141 C157.637996,6.99591727 157.196877,6.92578125 156.702227,6.92578125 C156.185427,6.92578125 155.744308,6.98853453 155.378857,7.11404297 C155.013406,7.23955141 154.714405,7.40197166 154.481846,7.60130859 C154.249286,7.80064553 154.079483,8.02397337 153.972432,8.27129883 C153.86538,8.51862428 153.811855,8.76779171 153.811855,9.01880859 C153.811855,9.28459117 153.852461,9.52637586 153.933672,9.74416992 C154.014883,9.96196398 154.171766,10.1649893 154.404326,10.353252 C154.636886,10.5415146 154.961726,10.715009 155.378857,10.8737402 C155.795988,11.0324715 156.340465,11.1893547 157.012305,11.3443945 C157.735824,11.5142001 158.359665,11.7024599 158.883848,11.9091797 C159.40803,12.1158995 159.841766,12.3613755 160.185068,12.6456152 C160.528371,12.9298549 160.783075,13.2546954 160.949189,13.6201465 C161.115304,13.9855975 161.198359,14.4082593 161.198359,14.8881445 C161.198359,15.3827954 161.095001,15.8349882 160.888281,16.2447363 C160.681561,16.6544845 160.386252,17.0051646 160.002344,17.2967871 C159.618436,17.5884097 159.153323,17.8154289 158.606992,17.9778516 C158.060661,18.1402742 157.451585,18.2214844 156.779746,18.2214844 C156.019313,18.2214844 155.347483,18.1236631 154.764238,17.9280176 C154.180993,17.7323721 153.690041,17.4684392 153.291367,17.1362109 C152.892693,16.8039827 152.591847,16.421926 152.388818,15.9900293 C152.18579,15.5581326 152.084277,15.1096312 152.084277,14.6445117 L153.413184,14.6445117 C153.442715,15.1170141 153.56453,15.5101449 153.778633,15.823916 C153.992735,16.1376871 154.258514,16.3887002 154.575977,16.5769629 C154.893439,16.7652256 155.245965,16.8999605 155.633564,16.9811719 C156.021164,17.0623832 156.403221,17.1029883 156.779746,17.1029883 C157.28178,17.1029883 157.724744,17.0439264 158.108652,16.9258008 C158.492561,16.8076752 158.815555,16.6489463 159.077646,16.4496094 C159.339738,16.2502724 159.537226,16.0214075 159.670117,15.7630078 C159.803008,15.5046081 159.869453,15.2351381 159.869453,14.9545898 L159.869453,14.9545898 Z M167.023398,11.9645508 L165.50623,13.4263477 L165.50623,18 L164.177324,18 L164.177324,0.99 L165.50623,0.99 L165.50623,11.875957 L166.757617,10.5249023 L171.342344,6.01769531 L173.014551,6.01769531 L167.931484,11.0675391 L173.45752,18 L171.873906,18 L167.023398,11.9645508 Z" id="Dashboard" fill="#9499A0" sketch:type="MSShapeGroup"></path>
        </g>
    </g>
</svg>
