<?xml version="1.0" encoding="UTF-8" standalone="no"?>
<svg width="46px" height="49px" viewBox="0 0 46 49" version="1.1" xmlns="http://www.w3.org/2000/svg" xmlns:xlink="http://www.w3.org/1999/xlink" xmlns:sketch="http://www.bohemiancoding.com/sketch/ns">
    <!-- Generator: Sketch 3.3.3 (12072) - http://www.bohemiancoding.com/sketch -->
    <title>Group Copy</title>
    <desc>Created with Sketch.</desc>
    <defs></defs>
    <g id="Page-1" stroke="none" stroke-width="1" fill="none" fill-rule="evenodd" sketch:type="MSPage">
        <g id="Group-Copy" sketch:type="MSLayerGroup" transform="translate(22.061982, 26.247419) rotate(-166.000000) translate(-22.061982, -26.247419) translate(-7.938018, -3.752581)">
            <g id="Fill-1-Copy-+-Fill-6-Copy-+-Fill-7" transform="translate(0.000000, 7.000000)" sketch:type="MSShapeGroup">
                <path d="M17.8256821,13.5819913 L33.9289596,22.828204 L27.3746966,26.5914469 L17.825374,21.1084771 L8.25741609,26.6023215 L1.70315313,22.8390787 L17.8256821,13.5819913 Z" id="Fill-1-Copy" fill="#5DBBDA" transform="translate(17.816056, 20.092156) rotate(-74.000000) translate(-17.816056, -20.092156) "></path>
                <path d="M2.22743478,27.3503502 L2.22743478,34.6457112 L18.3642095,25.3566126 L18.3642095,18.0614047 L2.22743478,27.3503502 Z" id="Fill-6-Copy" fill="#97D0DD" transform="translate(10.295822, 26.353558) rotate(-74.000000) translate(-10.295822, -26.353558) "></path>
                <path d="M6.64656654,9.86483934 L6.64656654,2.56947828 L22.6994446,11.8098707 L22.6994446,19.1052318 L6.64656654,9.86483934" id="Fill-7" fill="#0D465C" transform="translate(14.673006, 10.837355) rotate(-74.000000) translate(-14.673006, -10.837355) "></path>
            </g>
            <g id="Fill-1-Copy-+-Fill-6-Copy-+-Fill-7" transform="translate(22.000000, -0.000000)" sketch:type="MSShapeGroup">
                <path d="M16.0142985,15.6394661 L32.117576,24.8856788 L25.563313,28.6489217 L16.0139904,23.1659519 L6.44603248,28.6597963 L-0.108230484,24.8965535 L16.0142985,15.6394661 Z" id="Fill-1-Copy" fill="#F7C124" transform="translate(16.004673, 22.149631) rotate(46.000000) translate(-16.004673, -22.149631) "></path>
                <path d="M6.2738697,13.5030088 L6.2738697,20.7983699 L22.4106444,11.5092712 L22.4106444,4.21406336 L6.2738697,13.5030088 Z" id="Fill-6-Copy" fill="#AC312F" transform="translate(14.342257, 12.506217) rotate(46.000000) translate(-14.342257, -12.506217) "></path>
                <path d="M17.5646522,23.0825544 L17.5646522,15.7871934 L33.6175303,25.0275858 L33.6175303,32.3229469 L17.5646522,23.0825544" id="Fill-7" fill="#C25A2D" transform="translate(25.591091, 24.055070) rotate(46.000000) translate(-25.591091, -24.055070) "></path>
            </g>
            <g id="Fill-1-Copy-+-Fill-6-Copy-+-Fill-7" transform="translate(15.000000, 31.000000)" sketch:type="MSShapeGroup">
                <path d="M17.2783689,4.60105967 L33.3816464,13.8472724 L26.8273835,17.6105152 L17.2780609,12.1275454 L7.71010296,17.6213899 L1.15584,13.858147 L17.2783689,4.60105967 Z" id="Fill-1-Copy" fill="#009DCD" transform="translate(17.268743, 11.111225) rotate(166.000000) translate(-17.268743, -11.111225) "></path>
                <path d="M18.3830057,15.4900301 L18.3830057,22.7853911 L34.5197805,13.4962925 L34.5197805,6.20108461 L18.3830057,15.4900301 Z" id="Fill-6-Copy" fill="#5DBBDB" transform="translate(26.451393, 14.493238) rotate(166.000000) translate(-26.451393, -14.493238) "></path>
                <path d="M2.79893644,17.4880716 L2.79893644,10.1927105 L18.8518145,19.433103 L18.8518145,26.728464 L2.79893644,17.4880716" id="Fill-7" fill="#97D0DD" transform="translate(10.825375, 18.460587) rotate(166.000000) translate(-10.825375, -18.460587) "></path>
            </g>
        </g>
    </g>
</svg>
